<!DOCTYPE svg PUBLIC "-//W3C//DTD SVG 1.1//EN" "http://www.w3.org/Graphics/SVG/1.1/DTD/svg11.dtd">
<!-- Uploaded to: SVG Repo, www.svgrepo.com, Transformed by: SVG Repo Mixer Tools -->
<svg version="1.1" id="_x32_" xmlns="http://www.w3.org/2000/svg" xmlns:xlink="http://www.w3.org/1999/xlink" width="800px" height="800px" viewBox="0 0 512 512" xml:space="preserve" fill="#000000">
<g id="SVGRepo_bgCarrier" stroke-width="0"/>
<g id="SVGRepo_tracerCarrier" stroke-linecap="round" stroke-linejoin="round"/>
<g id="SVGRepo_iconCarrier"> <style type="text/css">  .st0{fill:#232733;}  </style> <g> <path class="st0" d="M334.857,166.955l-65.516-65.531c-39.469,23.672-126.656,62.688-126.656,62.688 c-19.719,8.172-33.938,25.813-37.734,46.813L60.826,416.596l-25.313,25.313c-9.125-0.109-18.281,3.297-25.234,10.25 c-13.703,13.688-13.703,35.875,0,49.563c13.688,13.703,35.891,13.703,49.578,0c6.953-6.953,10.359-16.109,10.234-25.219 l25.313-25.313l205.688-44.125c21-3.813,38.625-18.031,46.797-37.734c0,0,39.047-87.156,62.734-126.609l-65.531-65.531 L334.857,166.955z M269.889,302.127c-15.25,15.25-39.188,16.438-55.813,3.641L63.436,456.408c-1.094-1.484-2.25-2.922-3.578-4.25 c-1.344-1.344-2.766-2.5-4.25-3.578l150.641-150.641c-12.813-16.641-11.625-40.563,3.625-55.813 c16.578-16.578,43.438-16.578,60.016,0S286.467,285.564,269.889,302.127z"/> <path class="st0" d="M511.998,139.705L372.311,0.002c0,0-29.375,29.375-45.156,45.156s-36.297,11.047-36.297,11.047l-18.953,18.938 l66.297,66.297l15.781,15.781l82.875,82.875l18.938-18.938c0,0-4.734-20.516,11.047-36.313 C482.639,169.064,511.998,139.705,511.998,139.705z"/> </g> </g>
</svg>