<?xml version="1.0"?>
<svg xmlns="http://www.w3.org/2000/svg" xmlns:xlink="http://www.w3.org/1999/xlink" version="1.1" id="Capa_1" x="0px" y="0px" viewBox="0 0 512 512" style="enable-background:new 0 0 512 512;" xml:space="preserve" width="512px" height="512px"><g><g>
	<g>
		<path d="M186.747,0v14.331c0.85-0.05,1.69-0.07,2.52-0.07c10.07,0,19.481,3.02,27.281,8.31c0.01,0,0.01,0.01,0.01,0.01V0H186.747z    " data-original="#000000" class="active-path" data-old_color="#000000" fill="#FFFFFF"/>
	</g>
</g><g>
	<g>
		<path d="M210.738,106.424l-23.481,11.6c1.69,6.46,7.59,11.06,14.401,11.06c8.21,0,14.901-6.69,14.901-14.911v-11.13    C214.718,104.284,212.778,105.414,210.738,106.424z" data-original="#000000" class="active-path" data-old_color="#000000" fill="#FFFFFF"/>
	</g>
</g><g>
	<g>
		<path d="M216.568,101.844c0-0.16-0.01-0.32-0.01-0.49v1.69c0.02-0.01,0.04-0.03,0.05-0.04    C216.588,102.624,216.578,102.234,216.568,101.844z" data-original="#000000" class="active-path" data-old_color="#000000" fill="#FFFFFF"/>
	</g>
</g><g>
	<g>
		<path d="M246.55,0v100.724l0.01,0.41c0.13,8.06,6.81,14.631,14.901,14.631c8.21,0,14.901-6.69,14.901-14.901V0H246.55z" data-original="#000000" class="active-path" data-old_color="#000000" fill="#FFFFFF"/>
	</g>
</g><g>
	<g>
		<path d="M306.362,14.051v100.874c0,8.21,6.68,14.891,14.901,14.891c8.21,0,14.901-6.68,14.901-14.891V14.051H306.362z" data-original="#000000" class="active-path" data-old_color="#000000" fill="#FFFFFF"/>
	</g>
</g><g>
	<g>
		<path d="M366.164,50.522v73.043c0,8.22,6.68,14.901,14.901,14.901s14.901-6.68,14.901-14.901V50.522H366.164z" data-original="#000000" class="active-path" data-old_color="#000000" fill="#FFFFFF"/>
	</g>
</g><g>
	<g>
		<path d="M395.966,165.926c-4.66,1.64-9.67,2.54-14.891,2.54c-13.941,0-26.421-6.38-34.651-16.371    c-7.18,4.87-15.841,7.72-25.161,7.72c-15.581,0-29.341-7.98-37.391-20.061c-6.59,3.82-14.251,6.01-22.411,6.01    c-8.27,0-16.061-2.28-22.751-6.25c-1.23,1.79-2.58,3.48-4.04,5.07c40.162,21.901,62.162,55.802,63.632,98.124l-29.981,1.05    c-1.11-31.661-17.371-56.222-48.332-73.013c-24.741-13.411-49.852-16.721-50.102-16.751l-13.11-1.67l-0.03-13.221V99.634    l40.722-20.111c7.71-3.8,11.78-12.31,9.91-20.701c-1.87-8.44-9.49-14.561-18.111-14.561c-0.69,0-1.42,0.05-2.19,0.13l-56.282,6.45    l-14.761,109.324l94.604,123.445l54.762,14.931l-7.89,28.941l-41.322-11.26L211.779,512h159.034l-2.359-207.448l27.511-55.172    V165.926z" data-original="#000000" class="active-path" data-old_color="#000000" fill="#FFFFFF"/>
	</g>
</g><g id="SVGCleanerId_0">
	<g>
		<path d="M216.568,101.844c0-0.16-0.01-0.32-0.01-0.49v1.69c0.02-0.01,0.04-0.03,0.05-0.04    C216.588,102.624,216.578,102.234,216.568,101.844z" data-original="#000000" class="active-path" data-old_color="#000000" fill="#FFFFFF"/>
	</g>
</g><g>
	<g>
		<path d="M216.548,0v22.571c0.01,0,0.01,0.01,0.01,0.01V0H216.548z" data-original="#000000" class="active-path" data-old_color="#000000" fill="#FFFFFF"/>
	</g>
</g><g>
	<g>
		<path d="M216.568,101.844c0-0.16-0.01-0.32-0.01-0.49v1.69c0.02-0.01,0.04-0.03,0.05-0.04    C216.588,102.624,216.578,102.234,216.568,101.844z" data-original="#000000" class="active-path" data-old_color="#000000" fill="#FFFFFF"/>
	</g>
</g><g>
	<g>
		<polygon points="246.55,0 246.55,100.724 246.56,101.134 246.56,0   " data-original="#000000" class="active-path" data-old_color="#000000" fill="#FFFFFF"/>
	</g>
</g></g> </svg>
