<?xml version="1.0"?>
<svg xmlns="http://www.w3.org/2000/svg" height="512px" viewBox="0 0 58 58" width="512px"><g><g id="Page-1" fill="none" fill-rule="evenodd"><g id="033---Running-Schedule" fill="rgb(0,0,0)" fill-rule="nonzero" transform="translate(0 -1)"><circle id="Oval" cx="51.5" cy="31.5" r="3.5" data-original="#000000" class="active-path" data-old_color="#000000" fill="#FFFFFF"/><path id="Shape" d="m58 45.07c-.0013442 1.2395271-.9282465 2.2827752-2.159 2.43l-3.4.393-2.441.281c-.644387.075161-1.2922278-.1088594-1.8008819-.5115439s-.8364154-.9910158-.9111181-1.6354561l-.441-3.754c-.0283869-.2330709-.1876134-.429355-.4098194-.5051991-.222206-.075844-.4682146-.017876-.6331806.1491991l-5.091 5.091 4.343 4.331c.957154.9594336.957154 2.5125664 0 3.472l-3.472 3.471c-.7006908.7062144-1.7591929.9179222-2.6776105.5355409-.9184176-.3823814-1.5139173-1.2827295-1.5063895-2.2775409-.0028273-.6480437.2531044-1.270415.711-1.729l1.3-1.3c.1174744-.1144447.1837315-.2714945.1837315-.4355s-.0662571-.3210553-.1837315-.4355l-1.73-1.729c-.1141665-.1179873-.2713203-.1846026-.4355-.1846026s-.3213335.0666153-.4355.1846026l-5.631 5.63c-.9551765.9584901-2.5065098.9611764-3.465.006-.9584901-.9551765-.9611764-2.5065098-.006-3.465l16.049-16.059c.2341638-.2384584.2341638-.6205416 0-.859l-1.742-1.742c-.2385535-.2329781-.6194465-.2329781-.858 0l-.442.442c-.6202131.6202131-1.5241933.8624339-2.3714201.6354202-.8472269-.2270138-1.5089863-.8887732-1.7360001-1.7360001-.2270137-.8472268.0152071-1.751207.6354202-2.3714201l2.613-2.6c.458487-.4594601 1.0809131-.717664 1.73-.717664s1.271513.2582039 1.73.717664l7.213 7.2c.3922558.3882723.6393566.8994179.7 1.448l.626 5.336c.0141989.1352267.1346342.2338053.27.221l3.14-.368c.6462086-.0780297 1.2968771.1046156 1.8080811.5075359.5112039.4029203.8408128.9929091.9159189 1.6394641.0096531.0976844.0133266.1958674.011.294z" data-original="#000000" class="active-path" data-old_color="#000000" fill="#FFFFFF"/><path id="Shape" d="m53.141 21.614c-1.2395908.3960881-2.5757314-.2250085-3.072-1.428-3.6590788-8.5036734-11.9709324-14.06567014-21.2273903-14.20461445-9.256458-.13894431-17.7315062 5.17107215-21.64416822 13.56108975-3.912662 8.3900177-2.53335959 18.2955839 3.52255852 25.2975247l2.368-2.368c.2723344-.2713955.6761479-.3626248 1.0387048-.2346635.3625568.1279612.6196462.4524503.6612952.8346635l.661 5.961.412 3.726c.0322229.3015471-.0741357.6014251-.2891581.815281s-.5154746.3185817-.8168419.284719l-1.236-.14-8.411-1.374c-.38394812-.0620287-.69710339-.3410447-.80284442-.7153207-.10574102-.3742761.01511603-.7759099.30984442-1.0296793l2.565-2.22c-7.47875294-8.4428691-9.27265366-20.5028777-4.5750321-30.7569567 4.69762156-10.25407895 15.0022482-16.77148324 26.2801598-16.62150724 11.2779117.14997601 21.4055854 6.93909325 25.8288723 17.31446394.2620138.6360844.246063 1.3527611-.0439913 1.9765584-.2900544.6237973-.8277757 1.0978601-1.4830087 1.3074416z" data-original="#000000" class="active-path" data-old_color="#000000" fill="#FFFFFF"/><path id="Shape" d="m27 13.5c0-.8284271.6715729-1.5 1.5-1.5s1.5.6715729 1.5 1.5v10.713c-.9798345-.2840104-2.0201655-.2840104-3 0zm-10.5 17.5c-.8284271 0-1.5-.6715729-1.5-1.5s.6715729-1.5 1.5-1.5h6.713c-.2840104.9798345-.2840104 2.0201655 0 3zm12 2c-1.9329966 0-3.5-1.5670034-3.5-3.5s1.5670034-3.5 3.5-3.5 3.5 1.5670034 3.5 3.5-1.5670034 3.5-3.5 3.5z" data-original="#000000" class="active-path" data-old_color="#000000" fill="#FFFFFF"/><path id="Shape" d="m35 40h-12c-.5522847 0-1-.4477153-1-1s.4477153-1 1-1h12c.5522847 0 1 .4477153 1 1s-.4477153 1-1 1z" data-original="#000000" class="active-path" data-old_color="#000000" fill="#FFFFFF"/><path id="Shape" d="m30 45h-11c-.5522847 0-1-.4477153-1-1s.4477153-1 1-1h11c.5522847 0 1 .4477153 1 1s-.4477153 1-1 1z" data-original="#000000" class="active-path" data-old_color="#000000" fill="#FFFFFF"/><path id="Shape" d="m25 50h-5c-.5522847 0-1-.4477153-1-1s.4477153-1 1-1h5c.5522847 0 1 .4477153 1 1s-.4477153 1-1 1z" data-original="#000000" class="active-path" data-old_color="#000000" fill="#FFFFFF"/></g></g></g> </svg>
