<svg width="34" height="31" viewBox="0 0 34 31" fill="none" xmlns="http://www.w3.org/2000/svg">
<path fill-rule="evenodd" clip-rule="evenodd" d="M34 14.5625C34 22.329 26.3888 28.625 17 28.625C13.697 28.625 10.614 27.8458 8.00505 26.4975L0 30.5L3.35489 22.9515C1.2473 20.6096 0 17.7065 0 14.5625C0 6.796 7.61116 0.5 17 0.5C26.3888 0.5 34 6.796 34 14.5625ZM13.2222 6.80978V10.1603C14.3497 9.45924 15.4771 9.1087 16.6045 9.1087C17.333 9.1087 17.8794 9.28805 18.2436 9.64674C18.6252 9.98913 18.816 10.4538 18.816 11.0408C18.816 12.5734 17.4805 13.3397 14.8093 13.3397L14.8874 17.0326H18.3477L18.4258 15.0272C18.79 15.0272 19.1976 14.9375 19.6486 14.7582C20.0996 14.5788 20.5592 14.3261 21.0275 14C21.4959 13.6576 21.8861 13.1929 22.1983 12.606C22.5106 12.0027 22.6667 11.3342 22.6667 10.6005C22.6667 9.23098 22.1637 8.14674 21.1576 7.34783C20.1516 6.53261 18.8334 6.125 17.2029 6.125C15.5898 6.125 14.2629 6.35326 13.2222 6.80978ZM14.2109 20.7745C14.2109 21.394 14.4364 21.9239 14.8874 22.3641C15.3557 22.7881 15.9194 23 16.5785 23C17.2376 23 17.7927 22.7881 18.2436 22.3641C18.712 21.9239 18.9461 21.394 18.9461 20.7745C18.9461 20.1549 18.712 19.6332 18.2436 19.2092C17.7927 18.769 17.2376 18.5489 16.5785 18.5489C15.9194 18.5489 15.3557 18.769 14.8874 19.2092C14.4364 19.6332 14.2109 20.1549 14.2109 20.7745Z" fill="white"/>
<path d="M26.4445 15.4983C26.4445 21.1937 21.7932 25.8108 16.0556 25.8108C10.318 25.8108 5.66672 21.1937 5.66672 15.4983C5.66672 9.80282 10.318 5.18576 16.0556 5.18576C21.7932 5.18576 26.4445 9.80282 26.4445 15.4983Z" fill="white"/>
</svg>
