<svg width="22" height="22" viewBox="0 0 22 22" fill="none" xmlns="http://www.w3.org/2000/svg">
<path d="M11.0903 12.4258C12.9176 12.3507 14.3995 10.7519 14.3338 9.05675C14.3671 7.47627 12.8247 5.69339 10.8319 5.78348C9.21783 5.85556 7.67155 7.33273 7.64372 9.04234C7.61135 11.0141 9.38877 12.4955 11.0903 12.4258Z" fill="white"/>
<path d="M2.90078 12.3922C2.9389 12.773 3.14039 13.0904 3.37486 13.3832C3.76393 13.8675 4.24134 14.2276 4.88273 14.2901C5.29328 14.33 5.70806 14.3375 6.12103 14.3381C9.21642 14.3433 12.3119 14.3447 15.4075 14.3423C15.9218 14.3423 16.4362 14.3324 16.9505 14.3069C17.6273 14.2729 18.1528 13.9354 18.5757 13.4342C18.9388 13.003 19.127 12.5099 19.1227 11.9327C19.1094 10.1516 19.1182 8.37026 19.1185 6.58739C19.1185 6.46246 19.1152 6.33724 19.1185 6.21231C19.14 5.38709 18.7073 4.80091 18.0899 4.32253C17.6923 4.01442 17.2279 3.88109 16.7212 3.88079C15.7784 3.88079 14.8357 3.87058 13.893 3.86457H13.6985C13.5433 3.56427 13.3983 3.27238 13.2447 2.9859C13.0162 2.55797 12.8964 2.388 12.6111 2.21172C12.3861 2.07301 12.1264 1.99967 11.8614 2.00001H10.1203C9.87123 1.99892 9.62635 2.06371 9.41086 2.1877L9.40753 2.1895C9.12314 2.35497 8.93768 2.60662 8.79095 2.8922C8.62607 3.21232 8.45816 3.53124 8.28692 3.86337H8.15683C7.21411 3.86818 6.27139 3.87058 5.32837 3.87869C4.23015 3.8883 3.30135 4.54145 2.95736 5.57598C2.87598 5.82102 2.86811 6.0976 2.8666 6.35976C2.85913 8.05105 2.85832 9.74273 2.86417 11.4348C2.86538 11.7525 2.86841 12.0736 2.90078 12.3922ZM7.6894 6.2985C8.3199 5.53304 9.16005 5.0913 10.1297 4.90931C11.0358 4.73964 11.9316 4.80091 12.7763 5.1922C14.4488 5.96637 15.2747 7.3057 15.2935 9.1123C15.3086 10.6018 14.6932 11.8258 13.4353 12.6537C12.5921 13.2087 12.0224 13.3919 10.9463 13.3384C9.93365 13.4228 9.01695 13.0603 8.20947 12.4018C7.33936 11.6922 6.85106 10.7643 6.71673 9.66155C6.56334 8.4099 6.88434 7.27597 7.6894 6.2985Z" fill="white"/>
<path d="M9.68193 15.7159C9.54229 15.5763 9.37358 15.4688 9.18763 15.4007C9.00168 15.3327 8.80299 15.3059 8.6055 15.3222H8.59884C8.41157 15.3384 8.31869 15.4702 8.27452 15.6342C8.23216 15.7916 8.21401 15.9471 8.36195 16.075C8.74255 16.4027 9.1183 16.7357 9.49708 17.066C9.52013 17.0845 9.54416 17.1018 9.56909 17.1177L9.55457 17.1579C9.32191 17.1456 9.08896 17.1387 8.85691 17.1198C7.8077 17.0348 6.76211 16.9177 5.73105 16.6994C4.59017 16.4591 3.47167 16.1486 2.43608 15.5973C1.97137 15.3498 1.53481 15.063 1.21048 14.6393C0.960583 14.3126 0.824743 13.9441 0.977224 13.545C1.05467 13.3426 1.2126 13.1666 1.35208 12.9928C1.47309 12.8408 1.62859 12.715 1.75506 12.566C1.94808 12.3384 1.94324 12.1156 1.75687 11.9207C1.61861 11.7754 1.31305 11.7672 1.11549 11.9108C0.691929 12.2186 0.375167 12.6147 0.145236 13.082L0.143729 13.0853C0.0491124 13.2774 -3.96475e-05 13.4885 2.20083e-05 13.7024V13.9988C-0.0012904 14.239 0.056112 14.476 0.167321 14.6895C0.500116 15.3201 1.04741 15.7705 1.65673 16.145C2.62063 16.7375 3.67861 17.106 4.76685 17.394C5.87606 17.6863 7.00751 17.8881 8.14987 17.9973C8.69596 18.051 9.24356 18.0895 9.82292 18.1375C9.77754 18.1889 9.74426 18.23 9.70765 18.2675C9.40995 18.5732 9.10681 18.8735 8.81516 19.1849C8.63182 19.3813 8.57313 19.533 8.63 19.6997C8.66341 19.7888 8.72379 19.8656 8.80287 19.9193C8.88196 19.9731 8.97586 20.0013 9.07171 20H9.11407C9.23858 20.0003 9.35819 19.9519 9.44687 19.8651L11.3057 18.0507C11.3538 18.0033 11.3919 17.9469 11.4179 17.8847C11.4439 17.8225 11.4572 17.7559 11.4569 17.6886C11.4571 17.6217 11.444 17.5554 11.4183 17.4935C11.3926 17.4317 11.3548 17.3755 11.3072 17.3282L9.68193 15.7159Z" fill="white"/>
<path d="M21.7721 12.9489C21.5255 12.5363 21.2384 12.1591 20.8342 11.8868C20.6197 11.742 20.3616 11.779 20.2064 11.9606C20.0337 12.163 20.0388 12.3699 20.23 12.5757C20.4007 12.7594 20.584 12.9318 20.7504 13.1192C21.1489 13.5678 21.174 14.0624 20.8336 14.5582C20.6019 14.8952 20.289 15.1447 19.9453 15.3597C19.163 15.8504 18.3004 16.1537 17.4164 16.4024C16.3197 16.7108 15.1973 16.8874 14.0697 17.0369C13.9263 17.0558 13.7771 17.0759 13.6461 17.1306C13.4682 17.2045 13.3853 17.4255 13.4344 17.6138C13.4949 17.8456 13.6501 17.9955 13.8606 17.9849C14.1468 17.9708 14.4333 17.9447 14.7168 17.9051C16.1506 17.7045 17.5583 17.3967 18.9061 16.8576C19.7375 16.5252 20.5353 16.1285 21.1858 15.5018C21.6468 15.0576 22.0522 14.5708 21.9863 13.8246C22.0371 13.5315 21.9424 13.233 21.7721 12.9489Z" fill="white"/>
</svg>
