<svg width="19" height="19" viewBox="0 0 19 19" fill="none" xmlns="http://www.w3.org/2000/svg">
<g clip-path="url(#clip0_6_1592)">
<path d="M7.24113 14.6142L1.7364 9.11472C1.64994 9.01375 1.60476 8.88388 1.60989 8.75105C1.61502 8.61822 1.67009 8.49222 1.76408 8.39823C1.85807 8.30423 1.98408 8.24917 2.1169 8.24404C2.24973 8.23891 2.37961 8.28409 2.48057 8.37055L7.23057 13.1206L16.5142 3.8475C16.6151 3.76103 16.745 3.71585 16.8778 3.72098C17.0107 3.72611 17.1367 3.78118 17.2307 3.87517C17.3247 3.96917 17.3797 4.09517 17.3849 4.228C17.39 4.36083 17.3448 4.4907 17.2584 4.59166L7.24113 14.6142Z" fill="white"/>
</g>
<defs>
<clipPath id="clip0_6_1592">
<rect width="19" height="19" fill="white"/>
</clipPath>
</defs>
</svg>
