<svg width="19" height="19" viewBox="0 0 19 19" fill="none" xmlns="http://www.w3.org/2000/svg">
<path d="M14.1811 3.98169L9.50001 8.66281L4.81889 3.98169C4.7063 3.87866 4.5583 3.82304 4.40573 3.82642C4.25315 3.8298 4.10776 3.89192 3.99985 3.99983C3.89193 4.10775 3.82982 4.25314 3.82644 4.40571C3.82305 4.55829 3.87867 4.70629 3.9817 4.81887L8.66045 9.5L3.98051 14.1799C3.92334 14.2344 3.87763 14.2998 3.84608 14.3722C3.81453 14.4446 3.79778 14.5226 3.7968 14.6016C3.79582 14.6805 3.81064 14.7589 3.84039 14.8321C3.87013 14.9052 3.91421 14.9717 3.97001 15.0276C4.02582 15.0835 4.09224 15.1277 4.16536 15.1575C4.23849 15.1874 4.31684 15.2023 4.39581 15.2014C4.47479 15.2006 4.5528 15.1839 4.62525 15.1525C4.6977 15.121 4.76313 15.0754 4.8177 15.0183L9.50001 10.3384L14.1811 15.0195C14.2937 15.1225 14.4417 15.1781 14.5943 15.1748C14.7469 15.1714 14.8923 15.1093 15.0002 15.0014C15.1081 14.8934 15.1702 14.748 15.1736 14.5955C15.177 14.4429 15.1214 14.2949 15.0183 14.1823L10.3372 9.50119L15.0183 4.81887C15.0755 4.76439 15.1212 4.69902 15.1528 4.62661C15.1843 4.55421 15.2011 4.47622 15.202 4.39725C15.203 4.31827 15.1882 4.2399 15.1585 4.16674C15.1287 4.09357 15.0846 4.02709 15.0288 3.9712C14.973 3.91532 14.9066 3.87115 14.8335 3.8413C14.7604 3.81145 14.682 3.79652 14.603 3.79738C14.524 3.79825 14.446 3.8149 14.3736 3.84634C14.3011 3.87779 14.2357 3.9234 14.1811 3.9805V3.98169Z" fill="white" fill-opacity="0.5"/>
</svg>
