<svg width="28" height="18" viewBox="0 0 28 18" fill="none" xmlns="http://www.w3.org/2000/svg">
<path fill-rule="evenodd" clip-rule="evenodd" d="M22.239 9.3361C21.4865 11.0436 18.459 13.1122 14 13.1122C9.569 13.1122 6.41725 11.0696 5.754 9.36403C2.40625 9.52416 0 11.6543 0 12.9205C0 15.0208 6.26675 18 14 18C21.7315 18 28 15.0208 28 12.9205C28 11.6375 25.5938 10.0027 22.239 9.3361Z" fill="white"/>
<path fill-rule="evenodd" clip-rule="evenodd" d="M17.6347 0C16.7317 0 14.8662 0.659149 14.021 0.659149C13.1757 0.659149 11.3102 0 10.409 0C8.45949 0 7.24149 2.55467 7.07174 3.53222L7.03674 8.0513C8.02024 8.99348 9.85599 10.1777 11.8685 10.3565C12.5685 10.4179 13.307 10.4551 14.0752 10.4551C14.84 10.4551 15.5767 10.4179 16.2785 10.3565C18.291 10.1758 19.908 9.13871 20.9475 8.08296L20.9387 3.58994C20.7882 2.57329 19.5667 0 17.6347 0Z" fill="white"/>
</svg>
