<svg width="25" height="25" viewBox="0 0 25 25" fill="none" xmlns="http://www.w3.org/2000/svg">
<path d="M10.5 25V16.25H8V8.75C8 8.06251 8.245 7.47417 8.735 6.98501C9.225 6.49584 9.81333 6.25084 10.5 6.25001H15.5C16.1875 6.25001 16.7762 6.49501 17.2662 6.98501C17.7562 7.47501 18.0008 8.06334 18 8.75V16.25H15.5V25H10.5ZM13 5.00001C12.3125 5.00001 11.7242 4.75542 11.235 4.26626C10.7458 3.77709 10.5008 3.18834 10.5 2.50001C10.4992 1.81167 10.7442 1.22334 11.235 0.735008C11.7258 0.246675 12.3142 0.00167511 13 8.44594e-06C13.6858 -0.00165822 14.2746 0.243342 14.7662 0.735008C15.2579 1.22667 15.5025 1.81501 15.5 2.50001C15.4975 3.18501 15.2529 3.77376 14.7662 4.26626C14.2796 4.75876 13.6908 5.00334 13 5.00001Z" fill="white"/>
</svg>
