<svg width="26" height="25" viewBox="0 0 26 25" fill="none" xmlns="http://www.w3.org/2000/svg">
<path d="M8.23809 4.16666C5.36428 5.80595 3.47618 8.95476 3.47618 12.5C3.47618 14.3836 4.03474 16.225 5.08123 17.7911C6.12772 19.3573 7.61514 20.578 9.35539 21.2988C11.0956 22.0197 13.0106 22.2083 14.858 21.8408C16.7054 21.4733 18.4024 20.5663 19.7343 19.2343C21.0663 17.9024 21.9733 16.2054 22.3408 14.358C22.7083 12.5106 22.5197 10.5956 21.7988 8.85539C21.078 7.11514 19.8573 5.62773 18.2911 4.58124C16.725 3.53475 14.8836 2.97619 13 2.97619M8.23809 4.16666V8.92857M8.23809 4.16666H3.47618" stroke="white" stroke-width="1.7" stroke-linecap="round" stroke-linejoin="round"/>
</svg>
