<svg width="24" height="24" viewBox="0 0 24 24" fill="none" xmlns="http://www.w3.org/2000/svg">
<path d="M12.0001 4.5C13.5507 4.5 14.8458 3.29156 15.0001 1.78125C15.0141 1.64062 14.8594 1.5 14.7188 1.5C14.6428 1.50008 14.5674 1.51438 14.4966 1.54219C14.4872 1.54594 13.5076 1.92188 12.0001 1.92188C10.4926 1.92188 9.51099 1.54688 9.50349 1.54219C9.4236 1.51439 9.33963 1.50013 9.25505 1.5H9.25224C9.21719 1.50186 9.18286 1.51061 9.15121 1.52576C9.11955 1.54091 9.0912 1.56216 9.06777 1.58829C9.04435 1.61441 9.0263 1.64491 9.01468 1.67802C9.00306 1.71113 8.99809 1.74621 9.00005 1.78125C9.15708 3.28875 10.4532 4.5 12.0001 4.5Z" fill="white"/>
<path d="M22.748 4.21406L16.6875 2.0925C16.6616 2.08344 16.634 2.0802 16.6066 2.08301C16.5793 2.08581 16.5529 2.09459 16.5293 2.10872C16.5058 2.12286 16.4856 2.142 16.4703 2.16479C16.4549 2.18758 16.4447 2.21347 16.4405 2.24062C16.2652 3.29112 15.7229 4.24538 14.9102 4.9337C14.0975 5.62201 13.067 5.99975 12.0019 5.99975C10.9369 5.99975 9.90637 5.62201 9.09365 4.9337C8.28092 4.24538 7.73867 3.29112 7.56332 2.24062C7.55921 2.21302 7.54899 2.18668 7.5334 2.16353C7.51782 2.14038 7.49726 2.121 7.47323 2.10681C7.4492 2.09261 7.4223 2.08396 7.3945 2.08149C7.3667 2.07901 7.3387 2.08277 7.31254 2.0925L1.25207 4.21406C1.08245 4.27344 0.939781 4.39176 0.850049 4.54748C0.760318 4.7032 0.729486 4.88596 0.763168 5.0625L1.5427 9.1875C1.5727 9.34472 1.65221 9.48823 1.76962 9.59703C1.88702 9.70583 2.03615 9.77421 2.1952 9.79218L4.48645 10.0509C4.57998 10.0615 4.66613 10.1068 4.72778 10.1779C4.78944 10.2491 4.82209 10.3408 4.81926 10.4348L4.47567 21.727C4.47111 21.8726 4.50902 22.0163 4.58477 22.1406C4.66051 22.265 4.77082 22.3646 4.90223 22.4273C5.01147 22.4767 5.13019 22.5015 5.25004 22.5H18.75C18.8699 22.5015 18.9886 22.4767 19.0979 22.4273C19.2293 22.3646 19.3396 22.265 19.4153 22.1406C19.4911 22.0163 19.529 21.8726 19.5244 21.727L19.1808 10.4348C19.178 10.3408 19.2107 10.2491 19.2723 10.1779C19.334 10.1068 19.4201 10.0615 19.5136 10.0509L21.8049 9.79218C21.9639 9.77421 22.1131 9.70583 22.2305 9.59703C22.3479 9.48823 22.4274 9.34472 22.4574 9.1875L23.2369 5.0625C23.2706 4.88596 23.2398 4.7032 23.15 4.54748C23.0603 4.39176 22.9176 4.27344 22.748 4.21406Z" fill="white"/>
</svg>
