<svg width="21" height="25" viewBox="0 0 21 25" fill="none" xmlns="http://www.w3.org/2000/svg">
<path d="M12.6539 14.515C12.785 13.1095 12.749 11.9129 12.0938 10.8124C11.7927 10.3064 11.4445 9.8229 11.1835 9.29947C10.896 8.72002 10.6504 8.12263 10.4483 7.51144C10.283 7.01234 10.4627 6.65299 10.9133 6.36351C11.9436 5.70158 13.0342 5.15819 14.2653 4.93298C14.661 4.86635 15.0642 4.84852 15.4648 4.87994C15.9816 4.91425 16.1606 5.20747 16.0091 5.68349C15.9396 5.90185 15.8445 6.11272 15.7783 6.33169C15.2824 7.98371 16.1718 9.53591 17.9629 10.1523C18.6489 10.3887 19.3401 10.6152 20.0202 10.8641C20.2106 10.9424 20.3875 11.0476 20.5449 11.1761C21.0407 11.5579 21.1096 11.8368 20.8571 12.3914C20.2996 13.6135 19.8281 14.86 19.6418 16.1901C19.4201 17.7692 19.7271 19.2652 20.3744 20.7201C20.7023 21.4569 20.9777 22.2174 20.8938 23.0409C20.8151 23.8189 20.1645 24.3966 19.3703 24.3161C18.9914 24.2812 18.6242 24.1725 18.2914 23.9967C16.8309 23.1919 15.7166 22.029 14.6758 20.7837C13.0867 18.8822 12.6322 16.678 12.6539 14.515Z" fill="white"/>
<path d="M9.27302 6.993C9.26974 8.37176 9.93541 9.52031 10.6824 10.6177C11.3979 11.6689 11.6583 12.7801 11.5684 14.0209C11.3448 17.101 12.2112 19.8485 14.4076 22.1831C15.4044 23.2437 16.4577 24.2263 17.7595 24.9624C17.4251 25.0604 16.9312 24.9624 16.4951 24.7197C15.6468 24.2433 14.8758 23.6521 14.2062 22.9648C13.2159 21.9666 12.263 20.931 11.6911 19.6464C10.9697 18.0243 10.7211 16.3255 10.8877 14.583C11.0189 13.2037 10.645 11.9771 9.87441 10.8286C9.37467 10.0837 8.92346 9.31381 8.67425 8.45161C8.45848 7.70796 8.62374 7.27748 9.27302 6.993Z" fill="white"/>
<path d="M9.29138 12.0589C9.67701 12.8038 9.85146 13.4457 9.57797 14.1981C9.05002 15.6524 8.07414 16.8103 7.02021 17.922C6.27059 18.7112 5.42915 19.4031 4.44999 19.9303C4.09385 20.126 3.68321 20.2131 3.27342 20.1798C6.24174 18.1416 8.63226 15.7322 9.29138 12.0589Z" fill="white"/>
<path d="M10.8182 5.15008C10.8288 5.06216 10.8508 4.97583 10.8838 4.89304C11.3428 4.04208 11.7495 3.17614 11.7219 2.18481C12.3312 2.39755 12.5338 2.84923 12.3515 3.55733C12.3469 3.57729 12.3332 3.59539 12.3299 3.61535C12.2184 4.22488 11.9278 4.69278 11.2661 4.89429C11.1041 4.94358 10.9638 5.0565 10.8136 5.1401L10.8182 5.15008Z" fill="white"/>
<path d="M10.8123 5.14197H10.7939L10.8175 5.15133L10.8123 5.14197Z" fill="white"/>
<path d="M5.88628 0C6.88774 0.0561486 7.76524 0.333771 8.59881 0.731178C9.10512 0.971993 9.59174 1.25274 10.0718 1.54221C10.5519 1.83169 10.6654 2.18106 10.5571 2.71572C10.3978 3.50555 9.99903 4.19618 9.59241 4.88368C9.43698 5.14634 9.27171 5.40337 9.09922 5.65542C9.03722 5.75042 8.95363 5.831 8.8546 5.89124C7.56588 6.60495 7.18483 7.52329 7.63145 8.88584C7.73507 9.20214 7.82098 9.53903 8.00396 9.81291C8.36926 10.3613 8.33189 10.9284 8.23155 11.5217C8.03808 12.6759 7.78361 13.8207 7.12843 14.8226C5.96301 16.6056 4.54706 18.1803 2.60315 19.2396C1.69351 19.735 0.447418 19.6183 0.15885 18.4398C0.0683644 18.065 0.0735354 17.675 0.173933 17.3025C0.406099 16.4915 0.728114 15.7098 1.00947 14.9143C1.5219 13.4998 1.5826 11.9727 1.18391 10.5254C0.912398 9.52718 0.511682 8.55643 0.134576 7.58381C-0.0897203 6.99924 -0.0707017 6.70602 0.478234 6.3554C0.905839 6.08214 1.39641 5.89374 1.8778 5.70158C2.49887 5.45203 3.17176 5.30106 3.75676 4.99536C5.13008 4.27728 5.68493 2.74941 5.16026 1.34694C5.09796 1.18099 5.0291 1.01629 4.97991 0.847842C4.84874 0.403644 4.9845 0.180927 5.45736 0.0661343C5.5989 0.036402 5.74211 0.0143195 5.88628 0Z" fill="white"/>
</svg>
