<!DOCTYPE svg PUBLIC "-//W3C//DTD SVG 1.1//EN" "http://www.w3.org/Graphics/SVG/1.1/DTD/svg11.dtd">
<!-- Uploaded to: SVG Repo, www.svgrepo.com, Transformed by: SVG Repo Mixer Tools -->
<svg version="1.1" id="Icons" xmlns="http://www.w3.org/2000/svg" xmlns:xlink="http://www.w3.org/1999/xlink" viewBox="0 0 32 32" xml:space="preserve" width="800px" height="800px" fill="#000000">
<g id="SVGRepo_bgCarrier" stroke-width="0"/>
<g id="SVGRepo_tracerCarrier" stroke-linecap="round" stroke-linejoin="round"/>
<g id="SVGRepo_iconCarrier"> <style type="text/css"> .st0{fill:none;stroke:#62c4a9;stroke-width:2;stroke-linecap:round;stroke-linejoin:round;stroke-miterlimit:10;} .st1{fill:none;stroke:#62c4a9;stroke-width:2;stroke-linejoin:round;stroke-miterlimit:10;} </style> <path class="st0" d="M25,29H7c-0.6,0-1-0.4-1-1v-9c0-0.6,0.4-1,1-1h18c0.6,0,1,0.4,1,1v9C26,28.6,25.6,29,25,29z"/> <path class="st0" d="M23.5,10.9C21.8,12.8,19.1,14,16,14c-3.1,0-5.8-1.2-7.4-3.1"/> <path class="st0" d="M7,18v-2c0-5,4-9,9-9h0c5,0,9,4,9,9v2"/> <line class="st0" x1="14" y1="11" x2="18" y2="11"/> <line class="st0" x1="12" y1="21" x2="20" y2="21"/> <path class="st0" d="M13,7V6c0-1.7,1.3-3,3-3h0c1.7,0,3,1.3,3,3v1"/> <path class="st0" d="M6,25.7C5.7,25.9,5.4,26,5,26h0c-1.1,0-2-0.9-2-2v-6c0-1.1,0.9-2,2-2h0c1.1,0,2,0.9,2,2"/> <path class="st0" d="M26,25.7c0.3,0.2,0.6,0.3,1,0.3h0c1.1,0,2-0.9,2-2v-6c0-1.1-0.9-2-2-2h0c-1.1,0-2,0.9-2,2"/> </g>
</svg>