<!DOCTYPE svg PUBLIC "-//W3C//DTD SVG 1.1//EN" "http://www.w3.org/Graphics/SVG/1.1/DTD/svg11.dtd">
<!-- Uploaded to: SVG Repo, www.svgrepo.com, Transformed by: SVG Repo Mixer Tools -->
<svg fill="#ffe813" version="1.1" id="Capa_1" xmlns="http://www.w3.org/2000/svg" xmlns:xlink="http://www.w3.org/1999/xlink" width="800px" height="800px" viewBox="0 0 35 35" xml:space="preserve">

<g id="SVGRepo_bgCarrier" stroke-width="0"/>

<g id="SVGRepo_tracerCarrier" stroke-linecap="round" stroke-linejoin="round"/>

<g id="SVGRepo_iconCarrier"> <g> <path d="M18.214,2.106l-0.735,0.735c-2.403-2.403-6.312-2.403-8.716,0L8.026,2.105C10.834-0.702,15.404-0.702,18.214,2.106z M9.298,3.378l0.735,0.736c1.702-1.702,4.471-1.702,6.173,0l0.735-0.736C14.834,1.271,11.405,1.271,9.298,3.378z M10.61,4.69 l0.735,0.736c0.978-0.979,2.569-0.979,3.548,0l0.735-0.736C14.246,3.307,11.994,3.307,10.61,4.69z M26.974,14.525v18.51 c0,1.081-0.885,1.965-1.965,1.965H12.041c-1.08,0-1.965-0.884-1.965-1.965v-18.51c0-1.074,0.875-1.952,1.947-1.962V7.484 c0-0.631,0.512-1.143,1.143-1.143c0.631,0,1.143,0.512,1.143,1.143v5.077h10.7C26.089,12.561,26.974,13.445,26.974,14.525z M15.543,32.03c0-0.39-0.316-0.706-0.706-0.706H12.72c-0.391,0-0.706,0.316-0.706,0.706s0.315,0.704,0.706,0.704h2.117 C15.228,32.734,15.543,32.42,15.543,32.03z M15.543,29.337c0-0.39-0.316-0.706-0.706-0.706H12.72c-0.391,0-0.706,0.316-0.706,0.706 s0.315,0.706,0.706,0.706h2.117C15.228,30.043,15.543,29.727,15.543,29.337z M15.543,26.646c0-0.392-0.316-0.707-0.706-0.707H12.72 c-0.391,0-0.706,0.315-0.706,0.707c0,0.39,0.315,0.705,0.706,0.705h2.117C15.228,27.352,15.543,27.035,15.543,26.646z M15.543,23.953c0-0.391-0.316-0.706-0.706-0.706H12.72c-0.391,0-0.706,0.315-0.706,0.706c0,0.39,0.315,0.706,0.706,0.706h2.117 C15.228,24.659,15.543,24.342,15.543,23.953z M20.288,32.03c0-0.39-0.314-0.706-0.705-0.706h-2.118 c-0.39,0-0.706,0.316-0.706,0.706s0.316,0.704,0.706,0.704h2.118C19.974,32.734,20.288,32.42,20.288,32.03z M20.288,29.337 c0-0.39-0.314-0.706-0.705-0.706h-2.118c-0.39,0-0.706,0.316-0.706,0.706s0.316,0.706,0.706,0.706h2.118 C19.974,30.043,20.288,29.727,20.288,29.337z M20.288,26.646c0-0.392-0.314-0.707-0.705-0.707h-2.118 c-0.39,0-0.706,0.315-0.706,0.707c0,0.39,0.316,0.705,0.706,0.705h2.118C19.974,27.352,20.288,27.035,20.288,26.646z M20.288,23.953c0-0.391-0.314-0.706-0.705-0.706h-2.118c-0.39,0-0.706,0.315-0.706,0.706c0,0.39,0.316,0.706,0.706,0.706h2.118 C19.974,24.659,20.288,24.342,20.288,23.953z M25.034,32.03c0-0.39-0.316-0.706-0.706-0.706h-2.116 c-0.391,0-0.707,0.316-0.707,0.706s0.316,0.704,0.707,0.704h2.116C24.718,32.734,25.034,32.42,25.034,32.03z M25.034,29.337 c0-0.39-0.316-0.706-0.706-0.706h-2.116c-0.391,0-0.707,0.316-0.707,0.706s0.316,0.706,0.707,0.706h2.116 C24.718,30.043,25.034,29.727,25.034,29.337z M25.034,26.646c0-0.392-0.316-0.707-0.706-0.707h-2.116 c-0.391,0-0.707,0.315-0.707,0.707c0,0.39,0.316,0.705,0.707,0.705h2.116C24.718,27.352,25.034,27.035,25.034,26.646z M25.034,23.953c0-0.391-0.316-0.706-0.706-0.706h-2.116c-0.391,0-0.707,0.315-0.707,0.706c0,0.39,0.316,0.706,0.707,0.706h2.116 C24.718,24.659,25.034,24.342,25.034,23.953z M25.076,15.292H11.972v6.324h13.104V15.292z M16.09,19.049 c0.392,0,0.708-0.318,0.708-0.709s-0.316-0.709-0.708-0.709s-0.709,0.317-0.709,0.709C15.381,18.732,15.698,19.049,16.09,19.049z M18.395,19.049c0.392,0,0.709-0.318,0.709-0.709s-0.317-0.709-0.709-0.709c-0.392,0-0.709,0.317-0.709,0.709 C17.686,18.732,18.002,19.049,18.395,19.049z M20.697,19.049c0.392,0,0.709-0.318,0.709-0.709s-0.317-0.709-0.709-0.709 s-0.709,0.317-0.709,0.709C19.988,18.732,20.306,19.049,20.697,19.049z"/> </g> </g>

</svg>