<svg xmlns="http://www.w3.org/2000/svg" fill="#fff" viewBox="0 0 64 64"><path d="M54.707,1.293c-0.391-0.391-1.023-0.391-1.414,0L44.5,10.086l-0.08-0.08c-1.335-1.334-3.506-1.334-4.841,0l-7.287,7.287
		C32.105,17.48,32,17.734,32,18v3.343c0,0.802-0.312,1.556-0.878,2.122l-5.094,5.095c-0.649,0.648-1.007,1.511-1.007,2.429
		c0,0.917,0.357,1.779,1.006,2.428l4.557,4.558c0.669,0.669,1.549,1.004,2.428,1.004s1.759-0.335,2.429-1.004l5.095-5.095
		C41.094,32.32,41.867,32,42.657,32H46c0.265,0,0.52-0.105,0.707-0.293l7.287-7.287c1.334-1.334,1.334-3.506,0-4.84l-0.08-0.08
		l8.793-8.793c0.391-0.391,0.391-1.023,0-1.414L54.707,1.293z M39.122,31.465l-5.094,5.095c-0.561,0.559-1.471,0.559-2.03,0
		l-4.557-4.558c-0.271-0.271-0.42-0.631-0.42-1.014c0-0.384,0.149-0.743,0.42-1.015l5.095-5.095C33.48,23.935,34,22.679,34,21.343
		v-0.929L43.586,30h-0.929C41.322,30,40.066,30.521,39.122,31.465z M52.58,20.994c0.555,0.555,0.555,1.457,0,2.012L46,29.586
		L34.414,18l6.58-6.58c0.555-0.555,1.458-0.555,2.012,0l0.08,0.08l-1.793,1.793l-3,3c-0.391,0.391-0.391,1.023,0,1.414l8,8
		C46.488,25.902,46.744,26,47,26s0.512-0.098,0.707-0.293l3-3l1.793-1.793L52.58,20.994z M42,15.414L48.586,22L47,23.586L40.414,17
		L42,15.414z M50,20.586L43.414,14L54,3.414L60.586,10L50,20.586z"/><path d="M35.707 25.293c-.391-.391-1.023-.391-1.414 0l-5 5c-.391.391-.391 1.023 0 1.414l3 3C32.488 34.902 32.744 35 33 35s.512-.098.707-.293l5-5c.391-.391.391-1.023 0-1.414L35.707 25.293zM33 32.586L31.414 31 35 27.414 36.586 29 33 32.586zM18.707 34.293c-.391-.391-1.023-.391-1.414 0l-7.829 7.828C8.52 43.065 8 44.321 8 45.657v1.929l-6.707 6.707c-.391.391-.391 1.023 0 1.414l7 7C8.488 62.902 8.744 63 9 63s.512-.098.707-.293L16.414 56h1.929c1.335 0 2.591-.521 3.535-1.465l7.829-7.828C29.895 46.52 30 46.266 30 46s-.105-.52-.293-.707L18.707 34.293zM24.586 43L22 45.586 18.414 42 21 39.414 24.586 43zM9 60.586L3.414 55 9 49.414 14.586 55 9 60.586zM20.464 53.121C19.906 53.68 19.133 54 18.343 54h-1.929L10 47.586v-1.929c0-.802.312-1.556.878-2.122L18 36.414 19.586 38l-3.293 3.293c-.391.391-.391 1.023 0 1.414l5 5C21.488 47.902 21.744 48 22 48s.512-.098.707-.293L26 44.414 27.586 46 20.464 53.121z"/></svg>