<!DOCTYPE svg PUBLIC "-//W3C//DTD SVG 1.1//EN" "http://www.w3.org/Graphics/SVG/1.1/DTD/svg11.dtd">
<!-- Uploaded to: SVG Repo, www.svgrepo.com, Transformed by: SVG Repo Mixer Tools -->
<svg version="1.1" id="_x32_" xmlns="http://www.w3.org/2000/svg" xmlns:xlink="http://www.w3.org/1999/xlink" width="800px" height="800px" viewBox="0 0 512 512" xml:space="preserve" fill="#ffe813">
<g id="SVGRepo_bgCarrier" stroke-width="0"/>
<g id="SVGRepo_tracerCarrier" stroke-linecap="round" stroke-linejoin="round"/>
<g id="SVGRepo_iconCarrier"> <style type="text/css">  .st0{fill:#ffe813;}  </style> <g> <path class="st0" d="M489.844,249.438l-54.703-24.844c-3.234-1.469-6.078-3.656-8.344-6.406l-72.469-99.328l-0.234-0.328 c-7.188-8.766-17.922-13.844-29.25-13.844h-265.5c-17.047,0-31.969,11.406-36.469,27.844l-0.047,0.203L1.281,222.563l0,0 C0.438,225.719,0,229,0,232.281v106.813c0,20.844,16.906,37.766,37.781,37.766h14.922c2.141,0,4.172-0.953,5.531-2.578 c1.375-1.656,1.922-3.828,1.547-5.922c-0.656-3.516-1.031-7.078-1.031-10.672c0.016-16.219,6.594-30.859,17.234-41.531 c10.672-10.656,25.313-17.219,41.516-17.219c16.219,0,30.875,6.563,41.531,17.219c10.656,10.672,17.219,25.313,17.219,41.531 c0,3.594-0.375,7.156-1.016,10.672c-0.391,2.094,0.172,4.266,1.547,5.922c1.344,1.625,3.391,2.578,5.531,2.578h142.984 c2.141,0,4.156-0.953,5.531-2.578c1.359-1.656,1.922-3.828,1.547-5.922c-0.656-3.516-1.031-7.078-1.031-10.672 c0-16.219,6.578-30.859,17.234-41.531c10.656-10.656,25.297-17.219,41.516-17.219c16.203,0,30.859,6.563,41.531,17.219 c10.656,10.672,17.219,25.313,17.234,41.531c0,3.594-0.391,7.156-1.031,10.672c-0.391,2.094,0.172,4.266,1.547,5.922 c1.344,1.625,3.391,2.578,5.531,2.578h19.313c20.875,0,37.781-16.922,37.781-37.766v-55.25 C512,269.031,503.344,255.594,489.844,249.438z M44.625,362.469h-6.844c-6.469,0-12.281-2.594-16.531-6.844 c-3.031-3.031-5.188-6.844-6.203-11.156h30.578c-0.781,4.313-1.25,8.719-1.25,13.219C44.375,359.313,44.5,360.906,44.625,362.469z M46.375,340.891H14.469c-0.031-0.609-0.094-1.188-0.094-1.797v-19.781h41C51.281,325.891,48.219,333.156,46.375,340.891z M317.188,362.469H190.406c0.125-1.594,0.25-3.156,0.25-4.781c0-4.5-0.469-8.906-1.266-13.219h128.828 c-0.797,4.313-1.266,8.719-1.266,13.219C316.953,359.313,317.094,360.875,317.188,362.469z M318.969,340.891H188.625 c-1.828-7.734-4.891-15-8.969-21.578h148.281C323.875,325.891,320.813,333.156,318.969,340.891z M14.375,281.531v-49.25 c0-2.063,0.281-4.156,0.844-6.156l0.063-0.219L33,151.969h23.703c3.094,0,5.609-2.5,5.609-5.594v-27.313h214.656 c0,0.094-0.031,0.188-0.031,0.281v27.031c0,3.094,2.516,5.594,5.594,5.594h74.188c1.172,0,2.281-0.375,3.203-1.031l55.422,75.969 l0.25,0.313c3.656,4.484,8.313,8.063,13.594,10.469l54.703,24.875c7.656,3.469,12.734,10.75,13.547,18.969H14.375z M490.75,355.625 c-4.25,4.25-10.063,6.844-16.531,6.844H463c0.125-1.594,0.25-3.156,0.25-4.781c-0.016-4.5-0.469-8.906-1.266-13.219h34.969 C495.938,348.781,493.781,352.594,490.75,355.625z M497.625,339.094c0,0.609-0.063,1.188-0.094,1.797h-36.313 c-1.844-7.734-4.891-15-8.969-21.578h45.375V339.094z"/> <path class="st0" d="M117.5,308.031c-27.406,0-49.625,22.234-49.625,49.656c0,27.406,22.219,49.625,49.625,49.625 c27.422,0,49.656-22.219,49.656-49.625C167.156,330.266,144.922,308.031,117.5,308.031z M117.5,378 c-11.219,0-20.328-9.094-20.328-20.313c0-11.25,9.109-20.344,20.328-20.344c11.234,0,20.344,9.094,20.344,20.344 C137.844,368.906,128.734,378,117.5,378z"/> <path class="st0" d="M390.094,308.031c-27.406,0-49.625,22.234-49.625,49.656c0,27.406,22.219,49.625,49.625,49.625 s49.641-22.219,49.641-49.625C439.734,330.266,417.5,308.031,390.094,308.031z M390.094,378c-11.219,0-20.328-9.094-20.328-20.313 c0-11.25,9.109-20.344,20.328-20.344c11.234,0,20.344,9.094,20.344,20.344C410.438,368.906,401.328,378,390.094,378z"/> <path class="st0" d="M357.891,177.813v0.031c-1.625-2.281-4.266-3.625-7.031-3.625H284.25c-4.797,0-8.688,3.891-8.688,8.688v65.359 c0,4.797,3.891,8.688,8.688,8.688h113.891c3.266,0,6.266-1.828,7.734-4.734c0.656-1.25,0.969-2.609,0.969-3.953 c0-1.797-0.563-3.609-1.656-5.109L357.891,177.813z M399.484,248.938c-0.266,0.5-0.766,0.828-1.344,0.828H284.25 c-0.813,0-1.5-0.672-1.5-1.5v-65.359c0-0.813,0.688-1.484,1.5-1.484h66.609c0.484,0,0.938,0.234,1.203,0.609v0.016l47.313,65.328 l0.266,0.891L399.484,248.938z"/> <polygon class="st0" points="167.563,157.438 138.781,157.438 138.781,187.109 109.125,187.109 109.125,215.891 138.781,215.891 138.781,245.563 167.563,245.563 167.563,215.891 197.234,215.891 197.234,187.109 167.563,187.109 "/> </g> </g>
</svg>