<!DOCTYPE svg PUBLIC "-//W3C//DTD SVG 1.1//EN" "http://www.w3.org/Graphics/SVG/1.1/DTD/svg11.dtd">
<!-- Uploaded to: SVG Repo, www.svgrepo.com, Transformed by: SVG Repo Mixer Tools -->
<svg fill="#ffe813" width="800px" height="800px" viewBox="0 0 32 32" version="1.1" xmlns="http://www.w3.org/2000/svg">
<g id="SVGRepo_bgCarrier" stroke-width="0"/>
<g id="SVGRepo_tracerCarrier" stroke-linecap="round" stroke-linejoin="round"/>
<g id="SVGRepo_iconCarrier"> <title>backpack</title> <path d="M22.001 6.102c-0.804-6.974-11.349-6.98-12.168-0.017-3.109 1.369-5.24 4.423-5.24 7.974 0 0.087 0.001 0.174 0.004 0.261l-0-0.013v15.692c0 0.69 0.56 1.25 1.25 1.25h20.308c0.69-0.001 1.249-0.56 1.25-1.25v-15.708c-0.025-3.646-2.214-6.775-5.346-8.167l-0.057-0.023zM18.463 4.167c0.286 0.265 0.522 0.579 0.694 0.931l0.008 0.019c-0.98-0.233-2.106-0.366-3.262-0.366h-0c-0.060 0-0.12 0-0.18 0.001-1.073 0.013-2.11 0.138-3.108 0.364l0.099-0.019c0.694-1.1 1.903-1.82 3.28-1.82 0.941 0 1.804 0.337 2.475 0.896l-0.006-0.005zM19.75 21.75h-7.767v-1.5h7.767zM11.983 28.75v-4.5h7.767v4.5zM24.904 28.75h-2.654v-9.75c-0.001-0.69-0.56-1.249-1.25-1.25h-10.267c-0.69 0-1.25 0.56-1.25 1.25v9.75h-2.387v-14.457c-0.057-4.767 4.447-6.991 8.656-7.042 0.067-0.001 0.146-0.002 0.226-0.002 1.567 0 3.063 0.305 4.432 0.858l-0.079-0.028c0.016 0.007 0.034 0.011 0.051 0.017 2.625 0.904 4.484 3.336 4.523 6.208l0 0.005zM21 11.75h-10c-0.69 0-1.25 0.56-1.25 1.25s0.56 1.25 1.25 1.25v0h10c0.69 0 1.25-0.56 1.25-1.25s-0.56-1.25-1.25-1.25v0z"/> </g>
</svg>