<!DOCTYPE svg PUBLIC "-//W3C//DTD SVG 1.1//EN" "http://www.w3.org/Graphics/SVG/1.1/DTD/svg11.dtd">
<!-- Uploaded to: SVG Repo, www.svgrepo.com, Transformed by: SVG Repo Mixer Tools -->
<svg fill="#ffe813" height="800px" width="800px" version="1.1" id="Layer_1" xmlns="http://www.w3.org/2000/svg" xmlns:xlink="http://www.w3.org/1999/xlink" viewBox="0 0 512.001 512.001" xml:space="preserve" stroke="#ffe813">
<g id="SVGRepo_bgCarrier" stroke-width="0"/>
<g id="SVGRepo_tracerCarrier" stroke-linecap="round" stroke-linejoin="round"/>
<g id="SVGRepo_iconCarrier"> <g> <g> <path d="M483.041,320.54c-18.942-14.157-41.837-27.466-79.175-33.376c13.664-10.574,25.087-21.425,34.799-32.973 c21.963-26.112,34.977-55.72,39.788-90.514c1.481-10.716-7.476-19.983-18.223-18.897c-45.555,4.617-90.305,18.956-127.438,40.385 c1.644-71.038-28.846-139.028-64.229-179.465c-6.651-7.602-18.486-7.594-25.129,0c-35.383,40.437-65.871,108.427-64.229,179.465 c-37.133-21.428-81.883-35.768-127.438-40.385c-10.731-1.093-19.704,8.172-18.223,18.897 c4.811,34.794,17.826,64.401,39.788,90.514c9.714,11.548,21.136,22.4,34.801,32.974c-37.332,5.911-60.235,19.22-79.176,33.375 c-9.341,6.981-8.816,21.175,1.014,27.448c33.866,21.612,78.597,34.437,120.95,35.589c-5.32,13.41-7.317,28.555-6.193,46.019 c0.547,8.485,7.381,15.203,15.872,15.605c29.813,1.409,53.485-7.161,78.703-22.406v72.511c0,9.221,7.475,16.696,16.696,16.696 s16.696-7.475,16.696-16.696v-72.511c25.008,15.119,48.673,23.826,78.703,22.405c8.491-0.402,15.327-7.12,15.872-15.605 c1.123-17.463-0.874-32.609-6.193-46.019c42.348-1.154,87.086-13.979,120.95-35.589 C491.858,341.714,492.381,327.521,483.041,320.54z M331.334,348.715c-15.808-2.183-25.401,17.086-14.06,28.373 c9.646,9.599,14.895,20.282,16.431,34.106c-25.691-3.405-45.23-17.771-68.57-33.025c-5.549-3.626-12.718-3.626-18.266,0 c-23.353,15.264-42.88,29.623-68.57,33.025c1.535-13.823,6.785-24.507,16.431-34.106c11.251-11.197,1.881-30.579-14.06-28.373 c-40.149,5.54-79.434-3.574-108.335-16.089c18.535-9.106,44.376-15.951,86.279-15.224c17.139,0.319,23.551-22.575,8.617-31.165 c-54.824-31.539-84.076-63.057-96.006-104.983c44.233,8.11,87.073,26.397,117.882,50.779c12.091,9.568,29.635-1.06,26.763-16.203 c-12.136-64.004,9.968-129.23,40.132-172.094c30.165,42.865,52.268,108.089,40.132,172.094 c-2.873,15.15,14.677,25.766,26.763,16.203c30.809-24.381,73.648-42.669,117.882-50.779 c-11.93,41.926-41.182,73.444-96.006,104.983c-14.84,8.536-8.656,31.413,8.617,31.165c41.899-0.721,67.744,6.118,86.278,15.224 C410.766,345.14,371.478,354.254,331.334,348.715z"/> </g> </g> </g>
</svg>