<!DOCTYPE svg PUBLIC "-//W3C//DTD SVG 1.1//EN" "http://www.w3.org/Graphics/SVG/1.1/DTD/svg11.dtd">
<!-- Uploaded to: SVG Repo, www.svgrepo.com, Transformed by: SVG Repo Mixer Tools -->
<svg fill="#ffe813" version="1.1" id="Capa_1" xmlns="http://www.w3.org/2000/svg" xmlns:xlink="http://www.w3.org/1999/xlink" width="800px" height="800px" viewBox="0 0 97.483 97.484" xml:space="preserve">
<g id="SVGRepo_bgCarrier" stroke-width="0"/>
<g id="SVGRepo_tracerCarrier" stroke-linecap="round" stroke-linejoin="round"/>
<g id="SVGRepo_iconCarrier"> <g> <g> <circle cx="17.79" cy="32.819" r="8.653"/> <path d="M15.886,52.601c0.004-0.021,0.013-0.039,0.017-0.062c0.325-1.827-0.893-3.265-2.719-3.589 c-3.246-0.578-4.817-1.29-5.747-1.746c0.272-0.549,0.789-1.302,1.14-1.784c0.136-0.172,0.267-0.347,0.415-0.511v2.178 c1.008,0.354,2.456,0.75,4.53,1.12c1.044,0.186,1.954,0.768,2.561,1.637c0.545,0.781,0.785,1.711,0.695,2.646 c0.3-0.023,0.6-0.046,0.905-0.046h0.083c0.512,0.004,1.015,0.054,1.511,0.125c-0.112-0.964,0.124-1.923,0.684-2.726 c0.607-0.871,1.517-1.451,2.561-1.638c1.848-0.328,3.197-0.68,4.183-1.002v-2.583c0.657,0.705,1.225,1.474,1.651,2.334 c0.001,0.262-1.949,1.417-5.195,1.995c-1.826,0.324-3.044,1.916-2.719,3.743c0.007,0.039,0.017,0.072,0.023,0.111 c1.596,0.405,3.084,1.148,4.366,2.211c8.715-1.783,10.68-4.821,10.751-7.108c0.009-0.307-0.023-0.797-0.096-1.095 c-0.649-2.618-1.892-4.673-3.401-6.358c0-0.002,0-0.005,0.001-0.007c-0.059-0.065-0.122-0.122-0.18-0.186 c-0.199-0.215-0.401-0.427-0.608-0.63c-0.101-0.099-0.204-0.196-0.306-0.292c-0.152-0.143-0.306-0.284-0.461-0.422 c-1.146-1.021-2.361-1.896-3.547-2.674c-1.437,3.679-5.011,6.296-9.192,6.296c-4.114,0-7.646-2.53-9.126-6.115 c-3.514,2.24-7.254,5.264-8.568,10.571c-0.073,0.297-0.106,0.604-0.097,0.911c0.071,2.271,2.012,5.288,10.594,7.077 C12.086,53.759,13.903,52.925,15.886,52.601z"/> <path d="M26.448,62.392c0.038-4.887-3.895-8.877-8.781-8.914c-4.885-0.034-8.877,3.896-8.911,8.783 c-0.037,4.887,3.896,8.877,8.777,8.914C22.423,71.209,26.412,67.277,26.448,62.392z"/> <path d="M92.528,60.038L65.138,59.97c0.358,0.519,0.633,1.107,0.755,1.76c0.48,2.511-1.171,4.945-3.677,5.426 c-0.393,0.074-9.599,1.822-18.589,1.822c-2.904,0-5.492-0.187-7.734-0.545c0.005-0.047,0.015-0.092,0.02-0.14 c0.01-0.282,0.041-0.56,0.075-0.837c2.417,0.406,5.088,0.564,7.775,0.564c8.871,0,17.892-1.706,18.398-1.803 c1.977-0.379,3.271-2.289,2.896-4.263c-0.378-1.978-2.285-3.271-4.26-2.894c-0.151,0.027-13.997,2.639-23.059,1.296 c0.069-0.328,0.129-0.658,0.173-0.993c1.633,0.23,3.531,0.348,5.672,0.348c7.217,0,14.938-1.312,16.58-1.609 c-1.169-1.191-2.729-1.99-4.653-2.004L34.8,55.945c-3.84-0.029-6.442,3.326-7.236,6.456c0,0-0.304,0.987-0.291,2.036 c0.016,1.007,0.242,2.13,0.242,2.13l0.004,0.028c0.75,3.158,3.296,6.541,7.156,6.568l20.71,0.154 c2.559,0.018,4.572-1.419,5.843-3.424l31.276,0.076c0.004,0,0.004,0,0.015,0c2.733,0,4.955-2.216,4.964-4.953 C97.489,62.274,95.271,60.044,92.528,60.038z"/> <path d="M12.972,71.937c0,0-6.388-5.394-5.7-8.848c0,0-5.904,8.196,1.221,8.848C12.977,72.351,12.972,71.937,12.972,71.937z"/> <path d="M22.691,71.937c0,0-0.481,0.509,4.479,0c0.618-0.062,1.133-0.172,1.568-0.332c-0.815-1.25-1.51-2.611-1.98-4.016 C25.06,69.935,22.691,71.937,22.691,71.937z"/> </g> </g> </g>
</svg>