<!DOCTYPE svg PUBLIC "-//W3C//DTD SVG 1.1//EN" "http://www.w3.org/Graphics/SVG/1.1/DTD/svg11.dtd">
<!-- Uploaded to: SVG Repo, www.svgrepo.com, Transformed by: SVG Repo Mixer Tools -->
<svg fill="#ffe813" version="1.1" id="Capa_1" xmlns="http://www.w3.org/2000/svg" xmlns:xlink="http://www.w3.org/1999/xlink" width="800px" height="800px" viewBox="0 0 98.248 98.247" xml:space="preserve">
<g id="SVGRepo_bgCarrier" stroke-width="0"/>
<g id="SVGRepo_tracerCarrier" stroke-linecap="round" stroke-linejoin="round"/>
<g id="SVGRepo_iconCarrier"> <g> <g> <path d="M12.619,57.199h0.263v7.398h6.543l19.442,7.658l-0.001-2.1l-14.111-5.559h14.111l-0.002-2.102H14.983v-5.299h24.362 v-4.624c-0.46,0.166-1.696,0.278-2.204,0.327c-0.216,0.022-0.415,0.033-0.612,0.033c-5.24,0-5.739-2.358-6.05-5.481 c-0.024-0.235-0.04-0.461-0.06-0.691h-17.8c-1.74,0-3.151,1.41-3.151,3.151v4.136C9.468,55.789,10.879,57.199,12.619,57.199z"/> <path d="M85.626,46.761H69.214c-0.012,0.129-0.014,0.246-0.026,0.377c-0.317,3.186-1.573,5.93-6.397,5.45 c-0.437-0.044-1.727-0.132-2.135-0.263l-0.011,4.874h22.619v5.299h-22.21L61.053,64.6h12.438l-12.438,4.899l-0.001,2.099 l17.77-6.998h6.543V57.2h0.264c1.74,0,3.15-1.41,3.15-3.151v-4.136C88.778,48.171,87.369,46.761,85.626,46.761z"/> <path d="M85.889,91.818v-1.146h1.644v-2.1h-1.912L60.3,78.598c-0.313,0.604-0.711,1.153-1.184,1.635l21.174,8.341H17.957 l22.41-8.827c-0.414-0.514-0.754-1.086-1.006-1.704L12.625,88.573h-1.911v2.101h0.593v1.146c-1.088,0.57-1.839,1.699-1.839,3.013 c0,1.885,1.528,3.414,3.414,3.414c1.886,0,3.414-1.529,3.414-3.414c0-1.313-0.751-2.44-1.839-3.013v-1.146h68.281v1.146 c-1.088,0.57-1.838,1.699-1.838,3.013c0,1.885,1.527,3.414,3.414,3.414c1.885,0,3.414-1.529,3.414-3.414 C87.728,93.518,86.977,92.391,85.889,91.818z"/> <path d="M54.426,47.257c-2.366,0-4.286,1.918-4.286,4.286l-0.001,24.52c0,2.367,1.92,4.285,4.287,4.285 c2.366,0,4.286-1.918,4.286-4.285l0.002-24.52C58.714,49.175,56.796,47.257,54.426,47.257z"/> <path d="M45.241,47.257c-2.367,0-4.286,1.918-4.286,4.287l0.002,24.519c0,2.367,1.92,4.287,4.288,4.285 c2.366,0,4.285-1.918,4.285-4.287l-0.001-24.518C49.529,49.175,47.608,47.256,45.241,47.257z"/> <circle cx="49.789" cy="9.343" r="9.343"/> <path d="M35.753,51.426c0.119,0,0.242-0.007,0.366-0.019c1.993-0.2,3.445-1.979,3.245-3.972 c-0.546-5.472-0.146-9.292,0.862-12.135v12.91c0,0.223,0.021,0.438,0.039,0.653c0.898-1.9,2.817-3.226,5.054-3.226 c1.499,0,2.905,0.583,3.963,1.64c0.238,0.239,0.441,0.498,0.631,0.767c1.015-1.451,2.692-2.406,4.592-2.406 c2.07,0,3.861,1.141,4.832,2.814c0.002-0.081,0.015-0.159,0.015-0.242V35.076c1.067,2.833,1.503,6.625,0.963,12.03 c-0.2,1.993,1.255,3.771,3.248,3.971c0.122,0.012,0.244,0.019,0.364,0.019c1.841,0,3.418-1.396,3.605-3.268 c1.633-16.317-6.24-26.176-15.418-28.36l-2.326,2.344l-2.257-2.369c-0.008,0.002-0.017,0.002-0.023,0.004 c-3.124,1.002-17.704,6.102-15.36,28.713C32.334,50.029,33.911,51.426,35.753,51.426z"/> </g> </g> </g>
</svg>