<!DOCTYPE svg PUBLIC "-//W3C//DTD SVG 1.1//EN" "http://www.w3.org/Graphics/SVG/1.1/DTD/svg11.dtd">
<!-- Uploaded to: SVG Repo, www.svgrepo.com, Transformed by: SVG Repo Mixer Tools -->
<svg fill="#ffe813" version="1.1" id="Layer_1" xmlns="http://www.w3.org/2000/svg" xmlns:xlink="http://www.w3.org/1999/xlink" viewBox="0 0 512 512" xml:space="preserve" width="800px" height="800px">
<g id="SVGRepo_bgCarrier" stroke-width="0"/>
<g id="SVGRepo_tracerCarrier" stroke-linecap="round" stroke-linejoin="round"/>
<g id="SVGRepo_iconCarrier"> <g> <g> <path d="M484.151,124.081H158.789c-3.5-13.787-16.014-24.016-30.874-24.016H71.879c-14.86,0-27.374,10.23-30.874,24.016H27.849 C12.493,124.081,0,136.575,0,151.931s12.493,27.85,27.849,27.85h456.302c15.356,0,27.849-12.493,27.849-27.85 C512,136.575,499.507,124.081,484.151,124.081z M71.879,115.738h56.037c6.078,0,11.379,3.373,14.144,8.343H57.735 C60.5,119.111,65.8,115.738,71.879,115.738z M484.151,164.108H27.849c-6.714,0-12.175-5.462-12.175-12.176 c0-6.714,5.463-12.176,12.175-12.176h456.302c6.714,0,12.175,5.463,12.175,12.176S490.865,164.108,484.151,164.108z"/> </g> </g> <g> <g> <path d="M496.33,204.277v-15.674H15.67v15.673h181.712l46.602,40.297l-113.288,98.022c-7.083-6.444-16.489-10.377-26.797-10.377 c-21.978,0-39.858,17.88-39.858,39.858c0,21.979,17.88,39.858,39.858,39.858c19.328,0,35.48-13.831,39.097-32.112h226.009 c3.615,18.282,19.769,32.112,39.096,32.112c21.978,0,39.858-17.881,39.858-39.858c0-21.978-17.88-39.858-39.858-39.858 c-10.308,0-19.713,3.933-26.797,10.377l-113.362-98.024l46.57-40.294H496.33z M103.9,396.261 c-13.335,0-24.185-10.849-24.185-24.185s10.849-24.185,24.185-24.185s24.185,10.849,24.185,24.185 C128.084,385.411,117.234,396.261,103.9,396.261z M408.101,347.892c13.335,0,24.185,10.849,24.185,24.185 s-10.849,24.185-24.185,24.185s-24.185-10.849-24.185-24.185C383.916,358.741,394.766,347.892,408.101,347.892z M367.806,364.148 H144.194v-8.359h223.612V364.148z M354.474,340.115H157.517l98.448-85.181L354.474,340.115z M255.961,234.21l-34.617-29.934 h69.213L255.961,234.21z"/> </g> </g> <g> <g> <rect x="96.132" y="364.152" width="15.674" height="15.674"/> </g> </g> <g> <g> <rect x="400.202" y="364.152" width="15.674" height="15.674"/> </g> </g> </g>
</svg>