<!DOCTYPE svg PUBLIC "-//W3C//DTD SVG 1.1//EN" "http://www.w3.org/Graphics/SVG/1.1/DTD/svg11.dtd">
<!-- Uploaded to: SVG Repo, www.svgrepo.com, Transformed by: SVG Repo Mixer Tools -->
<svg height="800px" width="800px" version="1.1" id="_x32_" xmlns="http://www.w3.org/2000/svg" xmlns:xlink="http://www.w3.org/1999/xlink" viewBox="0 0 512 512" xml:space="preserve" fill="#ffe813">
<g id="SVGRepo_bgCarrier" stroke-width="0"/>
<g id="SVGRepo_tracerCarrier" stroke-linecap="round" stroke-linejoin="round"/>
<g id="SVGRepo_iconCarrier"> <style type="text/css"> .st0{fill:#ffe813;} </style> <g> <path class="st0" d="M440.488,0H71.512c-13.129,0-23.81,10.683-23.81,23.812v464.38c0,13.129,10.681,23.808,23.81,23.808h368.976 c13.129,0,23.81-10.679,23.81-23.808V23.812C464.298,10.683,453.617,0,440.488,0z M277.019,454.469 c0,11.603-9.429,21.04-21.019,21.04c-11.59,0-21.019-9.437-21.019-21.04c0-11.603,9.429-21.04,21.019-21.04 C267.59,433.428,277.019,442.866,277.019,454.469z M89.639,405.373V50.058h332.722v355.315H89.639z"/> </g> </g>
</svg>