<!DOCTYPE svg PUBLIC "-//W3C//DTD SVG 1.1//EN" "http://www.w3.org/Graphics/SVG/1.1/DTD/svg11.dtd">
<!-- Uploaded to: SVG Repo, www.svgrepo.com, Transformed by: SVG Repo Mixer Tools -->
<svg fill="#ffe813" version="1.1" id="Layer_1" xmlns="http://www.w3.org/2000/svg" xmlns:xlink="http://www.w3.org/1999/xlink" width="800px" height="800px" viewBox="0 0 256 191" enable-background="new 0 0 256 191" xml:space="preserve">
<g id="SVGRepo_bgCarrier" stroke-width="0"/>
<g id="SVGRepo_tracerCarrier" stroke-linecap="round" stroke-linejoin="round"/>
<g id="SVGRepo_iconCarrier"> <path d="M215.477,148.488c-11.196,0-20.256,9.06-20.256,20.256c0,11.196,9.06,20.256,20.256,20.256 c11.196,0,20.256-9.06,20.256-20.256C235.733,157.548,226.673,148.488,215.477,148.488z M215.477,176.503 c-4.253,0-7.759-3.506-7.759-7.759c0-4.253,3.506-7.759,7.759-7.759c4.253,0,7.759,3.506,7.759,7.759 C223.236,172.997,219.73,176.503,215.477,176.503z M252.247,149.646h-4.382v-18.404c0-6.482-4.837-12.269-11.393-12.269h-21.033 c-0.442,0-0.963-0.056-1.258-0.35l-32.778-31.905c-1.473-1.473-3.265-2.726-5.401-2.8H152.34v80.627h35.055 c0.81,0,1.344-0.801,1.491-1.538c2.21-12.669,13.258-22.318,26.59-22.318s24.381,9.649,26.59,22.318 c0.147,0.81,0.606,1.538,1.416,1.538h2.629c4.199,0,7.887-3.6,7.887-7.725v-5.451C254,150.558,253.131,149.646,252.247,149.646z M198.788,118.972h-35.931c-0.884,0-1.753-0.869-1.753-1.753V94.434c0-0.884,0.869-1.753,1.753-1.753h11.393 c0.442,0,1.335,0.665,1.703,0.96l23.718,22.698C200.555,117.444,200.188,118.972,198.788,118.972z M87.96,148.475 c-11.196,0-20.256,9.06-20.256,20.256c0,11.196,9.06,20.256,20.256,20.256c11.196,0,20.256-9.06,20.256-20.256 C108.216,157.535,99.156,148.475,87.96,148.475z M87.96,176.489c-4.253,0-7.759-3.506-7.759-7.759s3.506-7.759,7.759-7.759 c4.253,0,7.759,3.506,7.759,7.759S92.213,176.489,87.96,176.489z M146.206,110.829v53.715h-27.234h-2.8 c-0.81-0.212-1.473-0.727-1.62-1.538c-2.21-12.669-13.258-21.456-26.59-21.456s-24.381,8.786-26.59,21.456 c-0.147,0.736-0.81,1.325-1.62,1.538H40.164c-3.927-0.212-7.011-3.396-7.011-7.323v-24.227h66.821 c-3.224-3.775-5.174-8.669-5.174-14.022c0-4.969,1.681-9.543,4.5-13.193C76.976,77.835,45.414,39.293,36.393,26.226l-5.289,33.791 l5.416,0.706l-3.305,25.36l-3.966-0.517c-0.094,0.598-0.185,1.178-0.271,1.723c7.237,3.125,12.086,10.231,12.086,18.247 c0,1.03-0.084,2.069-0.246,3.12c-1.557,9.85-10.022,16.873-19.705,16.873c-1.029,0-2.069-0.084-3.109-0.24H18 c-7.791-1.233-13.826-6.814-16-13.873l9.494-2.91c1.103,3.564,4.123,6.375,8.057,6.991h-0.005c0.533,0.084,1.055,0.12,1.578,0.12 c4.844,0,9.144-3.543,9.907-8.496c0.089-0.538,0.12-1.061,0.12-1.578c0-4.844-3.543-9.139-8.491-9.907 c-1.312-0.204-2.466-0.904-3.245-1.975c-0.773-1.071-1.092-2.383-0.888-3.689c0-0.005,0.408-2.578,0.89-5.685l-3.052-0.398 l3.305-25.36l5.531,0.721l6.295-40.186c-0.528-0.789-0.93-1.405-1.123-1.735c2.78-0.435,21.983-14.516,21.983-14.516 C71.016,25.228,126.506,88.491,146.206,110.829z"/> </g>
</svg>