<!DOCTYPE svg PUBLIC "-//W3C//DTD SVG 1.1//EN" "http://www.w3.org/Graphics/SVG/1.1/DTD/svg11.dtd">
<!-- Uploaded to: SVG Repo, www.svgrepo.com, Transformed by: SVG Repo Mixer Tools -->
<svg fill="#ffe813" height="800px" width="800px" version="1.1" id="Layer_1" xmlns="http://www.w3.org/2000/svg" xmlns:xlink="http://www.w3.org/1999/xlink" viewBox="0 0 512.001 512.001" xml:space="preserve">
<g id="SVGRepo_bgCarrier" stroke-width="0"/>
<g id="SVGRepo_tracerCarrier" stroke-linecap="round" stroke-linejoin="round"/>
<g id="SVGRepo_iconCarrier"> <g> <g> <g> <path d="M494.933,135.52H225.901V86.379c0-22.585-18.374-40.96-40.96-40.96H40.96C18.374,45.419,0,63.794,0,86.379v363.137 c0,9.425,7.641,17.067,17.067,17.067h477.867c9.425,0,17.067-7.641,17.067-17.067V152.586 C512,143.161,504.359,135.52,494.933,135.52z M256,195.43c25.209,0,45.716,20.508,45.716,45.716 c0,25.208-20.507,45.716-45.716,45.716s-45.716-20.508-45.716-45.716C210.284,215.939,230.791,195.43,256,195.43z M336.217,415.757H175.783c-9.425,0-17.067-7.641-17.067-17.067c0-53.643,43.641-97.283,97.283-97.283 s97.283,43.641,97.283,97.283C353.283,408.115,345.642,415.757,336.217,415.757z"/> <path d="M494.933,81.408H253.497c-2.704,0-4.844,2.215-4.84,4.92c0,0.017,0,0.034,0,0.05v21.495c0,2.701,2.19,4.891,4.891,4.891 H507.11c2.701,0,4.891-2.19,4.891-4.891v-9.398C512,89.049,504.359,81.408,494.933,81.408z"/> </g> </g> </g> </g>
</svg>