<?xml version="1.0" standalone="no"?>
<!DOCTYPE svg PUBLIC "-//W3C//DTD SVG 20010904//EN"
 "http://www.w3.org/TR/2001/REC-SVG-20010904/DTD/svg10.dtd">
<svg version="1.0" xmlns="http://www.w3.org/2000/svg"
 width="64.000000pt" height="64.000000pt" viewBox="0 0 64.000000 64.000000"
 preserveAspectRatio="xMidYMid meet">

<g transform="translate(0.000000,64.000000) scale(0.100000,-0.100000)"
fill="#000000" stroke="none">
<path d="M106 593 c-3 -4 32 -46 80 -94 l86 -86 -64 -5 c-130 -11 -203 -80
-203 -192 l0 -61 93 -3 c74 -2 92 -6 92 -18 0 -8 7 -26 16 -40 53 -80 193 -68
225 20 l13 35 95 3 c77 2 96 6 96 18 0 12 -19 16 -95 18 l-95 3 -15 31 c-47
98 -184 98 -230 0 -15 -31 -16 -32 -87 -32 l-73 0 0 35 0 35 48 0 c56 0 88 25
98 78 l6 32 222 2 c189 3 221 5 221 18 0 12 -23 15 -134 18 l-135 3 69 69 69
70 68 0 c54 0 68 3 68 15 0 12 -15 15 -77 15 l-78 0 -82 -82 -83 -83 -93 93
c-89 89 -105 100 -121 85z m44 -251 c0 -27 -20 -42 -54 -42 l-31 1 33 29 c37
34 52 38 52 12z m209 -97 c33 -16 56 -64 48 -98 -8 -31 -42 -65 -72 -73 -61
-15 -123 46 -111 111 12 63 75 92 135 60z"/>
<path d="M272 208 c-17 -17 -15 -64 4 -82 47 -48 116 14 84 75 -12 22 -68 27
-88 7z m58 -44 c0 -14 -21 -19 -33 -7 -9 9 13 34 24 27 5 -3 9 -12 9 -20z"/>
</g>
</svg>
