<?xml version="1.0" standalone="no"?>
<!DOCTYPE svg PUBLIC "-//W3C//DTD SVG 20010904//EN"
 "http://www.w3.org/TR/2001/REC-SVG-20010904/DTD/svg10.dtd">
<svg version="1.0" xmlns="http://www.w3.org/2000/svg"
 width="512.000000pt" height="512.000000pt" viewBox="0 0 512.000000 512.000000"
 preserveAspectRatio="xMidYMid meet">

<g transform="translate(0.000000,512.000000) scale(0.100000,-0.100000)"
fill="#000000" stroke="none">
<path d="M2395 5073 c-260 -23 -462 -82 -577 -170 -181 -136 -319 -582 -335
-1075 l-6 -188 -74 0 c-65 0 -77 -3 -98 -25 -33 -32 -33 -78 0 -110 21 -22 33
-25 100 -25 l75 0 0 -547 -1 -548 -354 -465 c-256 -336 -355 -472 -355 -491 0
-15 10 -38 21 -53 18 -23 28 -27 63 -24 l41 3 351 460 350 460 43 3 c52 4 120
-18 234 -75 l87 -43 0 -480 0 -480 -78 0 c-88 0 -109 10 -231 108 -75 60 -108
66 -148 26 l-26 -26 7 -136 c24 -469 118 -750 312 -931 84 -78 131 -101 266
-125 263 -49 733 -49 996 0 144 26 186 47 277 138 189 187 269 432 295 901 5
99 10 663 10 1253 l0 1072 75 0 c67 0 79 3 100 25 33 32 33 78 0 110 -21 22
-33 25 -98 25 l-74 0 -6 183 c-12 346 -75 642 -187 872 -79 164 -167 244 -329
300 -186 65 -495 98 -726 78z m485 -182 c249 -43 345 -102 424 -258 97 -193
162 -500 173 -811 6 -187 5 -192 -46 -192 -13 0 -53 -7 -90 -16 l-68 -16 -50
36 c-309 222 -1013 222 -1325 0 l-46 -33 -52 14 c-29 8 -77 17 -106 21 l-54 6
0 122 c0 377 116 842 245 985 64 71 216 127 405 150 47 6 101 13 120 15 80 10
360 -4 470 -23z m-135 -1262 c165 -20 323 -74 403 -136 l22 -18 -50 -249 c-27
-137 -52 -251 -54 -253 -2 -2 -32 3 -67 12 -256 67 -565 71 -836 9 -58 -13
-108 -22 -110 -20 -2 1 -26 115 -53 252 l-50 249 22 18 c45 35 164 87 243 107
156 39 359 50 530 29z m-997 -165 c23 -4 42 -7 42 -8 0 -1 23 -114 50 -252 90
-442 110 -571 117 -722 l6 -144 -51 26 c-73 37 -194 76 -236 76 l-36 0 0 521
0 521 33 -6 c17 -3 51 -8 75 -12z m1732 -509 l0 -515 -35 0 c-45 0 -111 -23
-207 -70 l-78 -39 0 71 c0 131 31 351 96 683 36 182 67 337 70 347 5 18 59 35
117 37 l37 1 0 -515z m-710 -89 c111 -15 237 -42 257 -54 9 -6 8 -30 -4 -102
-13 -77 -16 -228 -20 -807 l-4 -712 -27 -5 c-54 -11 -288 -26 -412 -26 -124 0
-358 15 -412 26 l-27 5 -4 727 c-3 571 -7 745 -19 810 l-14 82 36 10 c198 56
444 73 650 46z m710 -1060 l0 -474 -47 -35 c-99 -72 -155 -97 -216 -97 l-57 0
0 474 0 474 68 38 c92 52 192 93 225 94 l27 0 0 -474z m-15 -753 c-25 -282
-75 -462 -167 -599 -117 -176 -201 -203 -653 -211 -396 -8 -604 16 -699 78
-116 77 -214 259 -260 484 -16 77 -40 284 -34 290 2 2 28 -8 58 -23 44 -22 71
-27 152 -30 l98 -4 4 -32 c2 -17 9 -69 15 -116 11 -96 41 -199 71 -248 26 -42
115 -85 230 -109 120 -25 440 -25 560 0 115 24 204 67 230 109 30 48 58 146
71 246 6 48 13 101 15 118 l5 32 78 3 c67 3 88 9 147 40 38 20 73 37 77 38 4
1 5 -29 2 -66z m-1020 -49 c154 -6 467 6 539 19 23 5 -11 -223 -42 -277 -15
-26 -29 -34 -87 -49 -137 -35 -486 -33 -618 4 -45 12 -72 50 -87 125 -12 57
-28 193 -23 197 1 2 31 0 65 -4 35 -5 149 -11 253 -15z"/>
</g>
</svg>
