<?xml version="1.0" standalone="no"?>
<!DOCTYPE svg PUBLIC "-//W3C//DTD SVG 20010904//EN"
 "http://www.w3.org/TR/2001/REC-SVG-20010904/DTD/svg10.dtd">
<svg version="1.0" xmlns="http://www.w3.org/2000/svg"
 width="512.000000pt" height="512.000000pt" viewBox="0 0 512.000000 512.000000"
 preserveAspectRatio="xMidYMid meet">

<g transform="translate(0.000000,512.000000) scale(0.100000,-0.100000)"
fill="#000000" stroke="none">
<path d="M2395 5073 c-260 -23 -462 -82 -577 -170 -181 -136 -319 -582 -335
-1075 l-6 -188 -74 0 c-65 0 -77 -3 -98 -25 -30 -29 -33 -74 -6 -106 14 -18
32 -25 73 -29 l54 -5 -328 -423 c-180 -233 -328 -432 -328 -442 0 -62 59 -104
110 -79 18 9 153 176 375 464 190 248 354 458 364 468 16 16 25 17 87 7 38 -6
72 -15 77 -19 12 -12 155 -743 166 -853 6 -54 11 -133 11 -177 l0 -80 -74 34
c-112 51 -170 65 -268 65 -81 0 -91 -2 -113 -25 l-25 -24 0 -548 c0 -826 21
-1055 121 -1315 63 -163 210 -334 322 -376 259 -97 1016 -97 1275 0 45 17 75
39 142 107 157 157 233 356 277 716 13 109 16 323 20 1318 l5 1187 74 0 c66 0
78 3 99 25 33 32 33 78 0 110 -21 22 -33 25 -98 25 l-74 0 -6 183 c-12 346
-75 642 -187 872 -79 164 -167 244 -329 300 -186 65 -495 98 -726 78z m485
-182 c249 -43 345 -102 424 -258 97 -193 162 -500 173 -811 6 -187 5 -192 -46
-192 -13 0 -53 -7 -90 -16 l-66 -16 -66 45 c-317 213 -1008 209 -1309 -7 l-48
-35 -52 14 c-29 8 -77 17 -106 21 l-54 6 0 122 c0 377 116 842 245 985 64 71
216 127 405 150 47 6 101 13 120 15 80 10 360 -4 470 -23z m-140 -1261 c161
-20 331 -77 408 -137 l22 -18 -50 -249 c-27 -137 -52 -251 -54 -253 -2 -2 -32
3 -67 12 -256 67 -565 71 -836 9 -58 -13 -108 -22 -110 -20 -2 1 -26 115 -53
252 l-50 249 22 18 c76 59 242 117 393 136 100 12 276 13 375 1z m740 -675 l0
-515 -35 0 c-45 0 -111 -23 -209 -71 l-79 -39 6 122 c9 179 30 317 98 658 33
168 62 312 65 322 5 18 59 35 117 37 l37 1 0 -515z m-644 -99 c84 -15 193 -42
200 -49 2 -2 -3 -46 -12 -98 -14 -79 -17 -207 -21 -806 l-4 -712 -27 -5 c-54
-11 -288 -26 -412 -26 -124 0 -358 15 -412 26 l-27 5 -4 727 c-3 571 -7 745
-19 810 l-14 82 36 10 c57 16 183 41 257 50 94 12 361 4 459 -14z m-989 -640
l113 -55 0 -480 0 -481 -76 0 c-68 0 -80 3 -122 32 -25 17 -63 47 -84 66 l-38
34 0 476 0 475 47 -7 c26 -3 98 -31 160 -60z m1633 -410 l0 -474 -72 -49
c-105 -72 -130 -83 -193 -83 l-55 0 0 474 0 474 68 38 c92 52 192 93 225 94
l27 0 0 -474z m-15 -753 c-25 -283 -75 -462 -168 -600 -67 -100 -140 -158
-227 -177 -126 -29 -295 -38 -589 -33 -293 5 -425 19 -497 53 -130 62 -244
257 -293 501 -18 89 -43 294 -36 301 1 1 26 -10 56 -25 45 -23 70 -28 151 -31
l98 -4 4 -32 c2 -17 9 -69 15 -116 11 -96 41 -199 71 -248 26 -42 115 -85 230
-109 120 -25 440 -25 560 0 115 24 204 67 230 109 30 48 58 146 71 246 6 48
13 101 15 118 l5 32 78 3 c67 3 88 9 147 40 38 20 73 37 77 38 4 1 5 -29 2
-66z m-476 -113 c-15 -118 -36 -192 -63 -216 -41 -36 -140 -49 -376 -49 -318
0 -366 16 -395 130 -15 61 -35 207 -29 214 1 1 76 -3 166 -9 161 -13 512 -8
638 9 30 4 58 4 61 1 4 -3 3 -39 -2 -80z"/>
</g>
</svg>
