<?xml version="1.0" standalone="no"?>
<!DOCTYPE svg PUBLIC "-//W3C//DTD SVG 20010904//EN"
 "http://www.w3.org/TR/2001/REC-SVG-20010904/DTD/svg10.dtd">
<svg version="1.0" xmlns="http://www.w3.org/2000/svg"
 width="512.000000pt" height="512.000000pt" viewBox="0 0 512.000000 512.000000"
 preserveAspectRatio="xMidYMid meet">

<g transform="translate(0.000000,512.000000) scale(0.100000,-0.100000)"
fill="#000000" stroke="none">
<path d="M3683 4105 c-38 -16 -42 -27 -53 -144 -13 -131 -12 -184 3 -204 16
-23 222 -99 267 -99 40 0 70 30 70 71 -1 35 -20 58 -66 77 l-39 17 65 25 c82
31 230 41 322 22 34 -8 104 -35 156 -62 53 -26 104 -48 114 -48 28 0 68 45 68
76 0 35 -42 73 -132 117 -157 78 -342 98 -509 56 -46 -12 -101 -30 -121 -40
-21 -11 -40 -19 -42 -19 -3 0 -4 27 -3 59 3 86 -36 123 -100 96z"/>
<path d="M4776 3735 c-44 -16 -65 -35 -468 -434 -158 -157 -289 -283 -291
-281 -2 3 -64 103 -138 223 -147 240 -185 289 -257 336 -92 59 -152 73 -304
75 -129 1 -139 0 -159 -21 -27 -26 -29 -75 -5 -102 14 -16 36 -19 151 -23 125
-4 137 -6 199 -37 35 -17 75 -44 88 -60 13 -15 111 -169 218 -342 106 -173
202 -324 213 -336 l20 -22 439 -3 440 -3 24 -28 c17 -19 24 -40 24 -68 l0 -39
-89 0 c-97 0 -140 -11 -189 -47 -51 -38 -75 -95 -76 -183 -1 -102 9 -144 47
-187 50 -57 96 -73 211 -73 l98 0 -4 -122 c-3 -97 -8 -133 -24 -169 -31 -67
-78 -114 -146 -149 l-61 -30 -188 0 -188 0 -16 58 c-76 264 -330 427 -594 382
-141 -24 -279 -115 -356 -235 -35 -54 -75 -154 -75 -185 0 -20 -9 -20 -445
-20 -309 0 -452 -3 -469 -11 -47 -22 -56 -99 -14 -126 7 -4 217 -10 467 -13
l454 -5 16 -60 c64 -230 269 -387 507 -387 140 0 251 43 352 137 87 80 132
157 162 273 l11 42 193 0 c167 0 201 3 251 20 160 55 275 188 305 352 7 36 10
209 8 460 -3 443 -2 430 -67 495 -63 63 -82 67 -349 73 l-243 5 285 284 c203
202 289 294 297 319 6 19 9 60 7 92 -6 78 -40 129 -109 164 -59 29 -104 32
-163 11z m106 -152 c45 -41 37 -51 -312 -397 l-330 -326 -64 0 c-44 0 -65 4
-69 13 -3 9 88 106 231 248 399 395 488 479 507 479 10 0 27 -7 37 -17z m88
-1258 l0 -95 -89 0 c-108 0 -116 6 -116 97 0 85 11 93 122 93 l83 0 0 -95z
m-975 -455 c79 -38 141 -100 179 -180 28 -59 31 -74 31 -160 0 -83 -4 -103
-28 -156 -121 -260 -487 -292 -649 -56 -106 154 -83 362 54 488 113 104 276
130 413 64z"/>
<path d="M3780 1761 c-216 -70 -239 -350 -36 -442 81 -37 204 -12 263 52 106
116 70 306 -71 373 -43 20 -121 29 -156 17z m118 -177 c30 -34 28 -75 -4 -108
-32 -31 -71 -34 -107 -6 -31 25 -41 63 -25 98 27 56 93 64 136 16z"/>
<path d="M2205 3654 c-188 -15 -332 -73 -442 -177 -29 -27 -148 -179 -264
-338 -117 -159 -217 -289 -223 -289 -6 0 -208 -20 -448 -45 -443 -45 -500 -55
-598 -105 -62 -32 -135 -95 -168 -147 -59 -93 -63 -128 -60 -567 l3 -394 30
-44 c18 -25 49 -52 75 -65 43 -22 52 -23 365 -23 l322 0 11 -51 c53 -230 265
-399 501 -402 97 -1 169 17 255 61 125 65 223 188 262 330 l17 62 137 0 c130
0 138 1 158 23 27 29 28 67 3 98 -18 23 -26 24 -159 27 l-140 3 -12 47 c-30
121 -114 240 -220 310 -211 141 -480 114 -661 -67 -73 -72 -131 -175 -144
-252 l-7 -39 -308 0 c-267 0 -311 2 -324 16 -9 8 -16 24 -16 35 0 18 8 19 111
19 61 0 119 5 130 11 48 25 44 105 -7 128 -14 6 -72 11 -129 11 l-105 0 0 35
0 35 100 0 c114 0 149 11 197 60 43 44 57 89 58 185 0 105 -28 166 -98 209
-42 26 -59 30 -147 34 -114 5 -119 10 -73 77 35 51 67 78 128 108 72 36 114
42 575 87 228 22 431 45 451 50 33 9 59 41 264 320 126 171 245 326 266 345
47 42 135 88 215 110 49 14 122 18 433 22 349 5 374 6 392 24 37 37 20 100
-32 118 -29 10 -558 14 -674 5z m-1874 -1433 c20 -16 24 -28 24 -79 0 -85 -9
-92 -116 -92 l-89 0 0 95 0 95 79 0 c63 0 84 -4 102 -19z m1143 -350 c238
-108 293 -420 107 -606 -181 -181 -491 -127 -601 106 -69 146 -40 309 75 424
114 114 272 143 419 76z"/>
<path d="M1265 1761 c-184 -45 -240 -275 -97 -403 69 -62 161 -75 248 -34 121
56 168 193 108 314 -30 61 -74 98 -140 118 -51 15 -72 16 -119 5z m81 -151
c37 -14 53 -38 54 -78 0 -70 -81 -107 -134 -59 -42 37 -36 106 12 131 33 18
34 19 68 6z"/>
<path d="M2218 3365 c-88 -18 -184 -64 -245 -119 -47 -43 -294 -370 -327 -433
-38 -75 -9 -159 66 -187 39 -15 132 -16 993 -14 902 3 952 4 987 22 75 37 100
133 57 217 -26 52 -213 354 -245 396 -35 46 -107 93 -176 115 -55 16 -100 18
-551 17 -367 -1 -509 -4 -559 -14z m412 -370 l0 -235 -421 0 c-334 0 -419 3
-412 13 21 35 238 326 260 348 13 15 46 38 72 53 83 45 141 55 329 55 l172 1
0 -235z m653 224 c21 -6 56 -26 77 -45 37 -33 260 -379 260 -403 0 -8 -119
-11 -420 -11 l-420 0 0 235 0 235 233 0 c133 0 248 -5 270 -11z"/>
</g>
</svg>
