<?xml version="1.0" encoding="iso-8859-1"?>
<!-- Uploaded to: SVG Repo, www.svgrepo.com, Generator: SVG Repo Mixer Tools -->
<svg fill="#000000" height="800px" width="800px" version="1.1" id="Layer_1" xmlns="http://www.w3.org/2000/svg" xmlns:xlink="http://www.w3.org/1999/xlink" 
	 viewBox="0 0 491.522 491.522" xml:space="preserve">
<g>
	<g>
		<path d="M471.042,20.481h-327.68c-4.791,0-9.43,1.68-13.111,4.747l-122.88,102.4c-4.669,3.891-7.369,9.655-7.369,15.733V245.72
			c0,0.014-0.002,0.027-0.002,0.041v204.8c0,11.311,9.169,20.48,20.48,20.48h450.56c11.311,0,20.48-9.169,20.48-20.48V245.802
			c0-0.014,0.002-0.027,0.002-0.041v-122.88v-81.92C491.522,29.65,482.353,20.481,471.042,20.481z M450.562,225.281h-327.68v-31.433
			l59.945-50.487h267.735V225.281z M40.962,152.953l109.815-91.512h299.785v40.96h-275.21c-4.828,0-9.5,1.706-13.193,4.815
			l-72.95,61.44c-4.62,3.891-7.287,9.624-7.287,15.664v40.96h-40.96V152.953z M450.56,430.081H286.722v-52.957l5.998,5.998
			c7.998,7.998,20.965,7.998,28.963,0c7.998-7.998,7.998-20.965,0-28.963l-40.959-40.959c-0.477-0.477-0.98-0.93-1.503-1.358
			c-0.235-0.193-0.484-0.361-0.726-0.543c-0.293-0.219-0.579-0.446-0.884-0.65c-0.291-0.195-0.593-0.363-0.891-0.541
			c-0.275-0.164-0.544-0.337-0.827-0.489c-0.305-0.163-0.618-0.301-0.929-0.447c-0.295-0.139-0.585-0.286-0.887-0.412
			c-0.302-0.125-0.61-0.226-0.916-0.335c-0.324-0.117-0.644-0.241-0.975-0.341c-0.307-0.093-0.619-0.161-0.929-0.239
			c-0.338-0.085-0.671-0.18-1.015-0.248c-0.358-0.071-0.72-0.113-1.081-0.165c-0.3-0.043-0.595-0.1-0.9-0.13
			c-1.344-0.133-2.698-0.132-4.042,0c-0.304,0.03-0.599,0.087-0.898,0.13c-0.361,0.052-0.724,0.094-1.083,0.165
			c-0.343,0.068-0.676,0.162-1.013,0.247c-0.31,0.078-0.623,0.146-0.93,0.239c-0.331,0.1-0.65,0.224-0.974,0.341
			c-0.307,0.11-0.616,0.211-0.918,0.336c-0.302,0.125-0.592,0.272-0.886,0.411c-0.311,0.147-0.625,0.285-0.93,0.448
			c-0.283,0.151-0.551,0.324-0.826,0.488c-0.299,0.178-0.601,0.347-0.892,0.542c-0.304,0.203-0.59,0.429-0.882,0.648
			c-0.242,0.182-0.491,0.35-0.727,0.544c-0.522,0.428-1.025,0.88-1.502,1.357L210.8,354.159c-7.998,7.998-7.998,20.965,0,28.963
			c7.998,7.998,20.965,7.998,28.963,0l5.998-5.998v52.957H40.96v-163.84h61.442H450.56V430.081z"/>
	</g>
</g>
</svg>