<svg width="16" height="16" viewBox="0 0 16 16" fill="none" xmlns="http://www.w3.org/2000/svg">
<g clip-path="url(#clip0_9_186)">
<path d="M3.7959 5.19111C3.85915 5.94777 4.0044 6.98424 4.33305 8.07252C5.03105 10.3836 6.26412 12.027 7.9999 12.9609C9.73568 12.027 10.9687 10.3836 11.6667 8.07252C11.9954 6.98433 12.1406 5.94783 12.2039 5.19111L7.9999 3.08911L3.7959 5.19111Z" fill="white" fill-opacity="0.2"/>
<path d="M15.0578 3.73929C15.049 3.57073 14.9503 3.41988 14.7993 3.34441L8.20946 0.0494765C8.07749 -0.0164922 7.92218 -0.0164922 7.79021 0.0494765L1.20036 3.34441C1.04939 3.41988 0.950644 3.57073 0.941894 3.73929C0.936894 3.83522 0.828519 6.11954 1.60667 8.77163C2.06711 10.3408 2.74436 11.7113 3.61961 12.8452C4.72258 14.274 6.14021 15.3251 7.83311 15.9693C7.88683 15.9898 7.9433 16 7.99983 16C8.05636 16 8.11283 15.9898 8.16655 15.9693C9.85946 15.3251 11.2771 14.274 12.38 12.8452C13.2553 11.7113 13.9325 10.3408 14.393 8.77163C15.1711 6.11954 15.0628 3.83522 15.0578 3.73929V3.73929ZM8.20758 13.9085C8.14211 13.9408 8.07096 13.957 7.99983 13.957C7.92871 13.957 7.85752 13.9408 7.79208 13.9085C5.70483 12.8765 4.23908 11.0042 3.43558 8.3436C3.03371 7.01288 2.88861 5.75894 2.83767 4.94138C2.82596 4.75363 2.92764 4.5771 3.09589 4.49297L7.79024 2.14582C7.92221 2.07988 8.07752 2.07985 8.20949 2.14582L12.9039 4.49297C13.0721 4.57707 13.1738 4.75366 13.1621 4.94141C13.1111 5.75904 12.966 7.013 12.5641 8.3436C11.7606 11.0041 10.2948 12.8764 8.20758 13.9085V13.9085Z" fill="white" fill-opacity="0.2"/>
</g>
<defs>
<clipPath id="clip0_9_186">
<rect width="16" height="16" fill="white"/>
</clipPath>
</defs>
</svg>
