<!DOCTYPE svg PUBLIC "-//W3C//DTD SVG 1.1//EN" "http://www.w3.org/Graphics/SVG/1.1/DTD/svg11.dtd">
<!-- Uploaded to: SVG Repo, www.svgrepo.com, Transformed by: SVG Repo Mixer Tools -->
<svg fill="#fff" version="1.1" id="Layer_1" xmlns="http://www.w3.org/2000/svg" xmlns:xlink="http://www.w3.org/1999/xlink" viewBox="0 0 512 512" xml:space="preserve" width="800px" height="800px" stroke="#fff">
<g id="SVGRepo_bgCarrier" stroke-width="0"/>
<g id="SVGRepo_tracerCarrier" stroke-linecap="round" stroke-linejoin="round"/>
<g id="SVGRepo_iconCarrier"> <g> <g> <polygon points="40.751,32.914 40.751,456.098 56.424,456.098 56.424,48.588 454.531,48.588 454.531,456.098 470.204,456.098 470.204,32.914 "/> </g> </g> <g> <g> <rect x="120.163" y="112.327" width="271.673" height="15.673"/> </g> </g> <g> <g> <rect x="120.163" y="159.347" width="271.673" height="15.673"/> </g> </g> <g> <g> <rect x="120.163" y="208.457" width="271.673" height="15.673"/> </g> </g> <g> <g> <rect x="120.163" y="256.522" width="271.673" height="15.673"/> </g> </g> <g> <g> <rect x="120.163" y="303.543" width="271.673" height="15.673"/> </g> </g> <g> <g> <rect x="159.869" y="350.563" width="16.718" height="15.673"/> </g> </g> <g> <g> <rect x="335.412" y="350.563" width="16.718" height="15.673"/> </g> </g> <g> <g> <path d="M376.163,463.412v-24.421h15.319v-39.604h-8.005v-33.15h40.751v89.861h15.673V65.306H73.143v390.792h15.673v-89.861 h39.706v33.151h-7.97v39.604h15.285v24.42H0v15.673h510.955v-15.673H376.163z M88.816,350.563v-31.347h15.673v-15.673H88.816 v-31.347h15.673v-15.673H88.816v-32.392h15.673v-15.673H88.816V175.02h15.673v-15.673H88.816V128h15.673v-15.673H88.816V80.98 h335.412v31.347h-17.763V128h17.763v31.347h-17.763v15.673h17.763v33.437h-17.763v15.673h17.763v32.392h-17.763v15.673h17.763 v31.347h-17.763v15.673h17.763v31.347H360.49v15.673h7.314v33.151H144.196v-33.151h8.359v-15.673H88.816z M183.902,447.739H151.51 v-8.748h32.392V447.739z M312.424,463.412H199.575v-24.421h112.849V463.412z M360.49,447.739h-32.392v-8.748h32.392V447.739z M375.809,423.317H136.224v-8.257h239.585V423.317z"/> </g> </g> <g> <g> <polygon points="319.739,376.686 319.739,366.237 327.053,366.237 327.053,350.563 184.947,350.563 184.947,366.237 192.261,366.237 192.261,376.686 152.555,376.686 152.555,392.359 207.935,392.359 207.935,366.237 304.065,366.237 304.065,392.359 360.49,392.359 360.49,376.686 "/> </g> </g> <g> <g> <rect x="216.294" y="376.686" width="79.412" height="15.673"/> </g> </g> <g> <g> <polygon points="512,88.294 512,72.62 480.653,72.62 480.653,159.347 512,159.347 512,143.673 496.327,143.673 496.327,88.294 "/> </g> </g> </g>
</svg>